<?xml version="1.0" standalone="no"?>
<!DOCTYPE svg PUBLIC "-//W3C//DTD SVG 20010904//EN"
 "http://www.w3.org/TR/2001/REC-SVG-20010904/DTD/svg10.dtd">
<svg version="1.0" xmlns="http://www.w3.org/2000/svg"
 width="910.000000pt" height="910.000000pt" viewBox="0 0 910.000000 910.000000"
 preserveAspectRatio="xMidYMid meet">
<metadata>
Created by potrace 1.14, written by Peter Selinger 2001-2017
</metadata>
<g transform="translate(0.000000,910.000000) scale(0.100000,-0.100000)"
fill="#000000" stroke="none">
<path d="M3906 8891 c-3 -5 -16 -7 -27 -4 -14 4 -25 0 -31 -11 -8 -14 -12 -15
-24 -5 -12 10 -15 10 -12 -2 2 -8 -4 -13 -14 -13 -10 1 -16 -2 -13 -6 3 -5 -2
-16 -11 -24 -8 -9 -12 -16 -8 -16 3 0 1 -7 -6 -15 -6 -7 -14 -33 -16 -57 -2
-24 -5 -49 -6 -55 -1 -7 -7 -13 -14 -13 -7 0 -14 -5 -16 -11 -2 -6 -18 -12
-36 -12 -18 -1 -32 -5 -32 -8 0 -4 -9 -9 -21 -12 -14 -4 -18 -10 -13 -19 6
-11 5 -11 -8 0 -14 11 -17 10 -23 -8 -3 -11 -11 -18 -16 -15 -5 4 -9 -1 -9
-10 0 -8 -7 -18 -15 -21 -8 -4 -15 -13 -15 -20 0 -8 -7 -17 -16 -21 -13 -5
-13 -7 -2 -14 10 -7 10 -9 0 -9 -21 0 -55 -37 -47 -51 5 -7 4 -10 -1 -7 -9 4
-45 -28 -52 -46 -2 -5 2 -13 10 -18 9 -7 7 -8 -10 -5 -12 3 -20 1 -16 -4 3 -5
0 -9 -6 -9 -6 0 -8 -4 -5 -10 3 -5 -1 -10 -9 -10 -9 0 -13 -7 -11 -20 2 -11
-1 -20 -7 -20 -6 0 -8 -3 -5 -6 3 -4 2 -15 -3 -25 -7 -12 -7 -20 0 -24 5 -3
10 -15 10 -26 0 -10 9 -28 20 -39 11 -11 20 -26 20 -32 0 -9 -4 -8 -10 2 -7
11 -10 11 -10 2 0 -7 10 -17 23 -22 13 -5 16 -9 7 -10 -13 0 -13 -1 0 -10 12
-8 12 -10 1 -10 -10 0 -11 -3 -2 -14 9 -10 9 -16 1 -21 -6 -4 -9 -13 -6 -21 3
-8 1 -14 -5 -14 -5 0 -7 -11 -5 -25 3 -14 1 -25 -4 -25 -10 0 -8 -20 4 -39 6
-10 5 -12 -2 -7 -7 4 -12 1 -12 -9 0 -8 -7 -18 -15 -21 -8 -4 -15 -12 -15 -20
0 -7 -6 -11 -14 -8 -7 3 -22 -3 -31 -13 -10 -10 -23 -18 -29 -18 -6 -1 -10 -6
-9 -11 1 -6 -4 -11 -11 -11 -16 0 -76 -44 -76 -55 0 -5 -3 -7 -7 -5 -5 3 -18
-11 -31 -31 -13 -20 -17 -32 -10 -26 8 5 5 1 -5 -8 -11 -10 -17 -25 -14 -33 4
-8 2 -17 -2 -20 -11 -6 -6 -85 9 -150 19 -81 21 -137 5 -131 -9 3 -12 0 -8
-10 3 -8 -1 -14 -11 -14 -9 0 -16 -6 -16 -12 0 -9 -3 -9 -8 -3 -4 6 -14 11
-22 10 -8 0 -22 7 -31 15 -32 30 -59 50 -69 50 -6 0 -10 5 -10 10 0 6 -7 10
-16 10 -8 0 -12 5 -9 10 3 6 1 10 -5 10 -6 0 -20 9 -32 20 -12 11 -32 20 -45
20 -13 0 -23 5 -23 12 0 9 -3 9 -12 0 -7 -7 -17 -8 -28 -2 -12 7 -23 4 -38
-10 -14 -14 -22 -16 -25 -7 -4 9 -6 9 -6 0 -1 -7 -6 -13 -12 -13 -18 0 -111
-105 -102 -114 6 -6 -12 -10 -29 -7 -4 0 -5 -6 -2 -14 4 -8 -1 -17 -10 -21 -9
-3 -16 -15 -16 -25 0 -10 -5 -19 -11 -19 -5 0 -8 -4 -5 -8 3 -4 1 -25 -4 -46
-6 -29 -5 -39 7 -43 12 -5 12 -7 1 -14 -10 -7 -10 -9 0 -9 6 0 12 -6 12 -14 0
-8 13 -30 30 -48 17 -18 30 -28 30 -23 0 6 3 6 8 0 4 -6 27 -17 52 -26 25 -9
44 -22 42 -28 -1 -6 2 -11 8 -11 5 0 10 -6 10 -14 0 -8 6 -17 13 -19 9 -4 8
-6 -2 -6 -11 -1 -11 -4 0 -18 12 -15 12 -16 -1 -8 -13 7 -13 6 -2 -7 7 -9 12
-25 10 -35 -2 -10 2 -17 8 -16 7 1 10 -5 7 -16 -5 -18 46 -127 78 -170 11 -13
16 -28 12 -35 -3 -6 -3 -8 2 -4 5 5 13 -2 20 -15 9 -17 8 -27 -3 -44 -8 -13
-18 -20 -23 -17 -5 3 -6 -2 -3 -11 4 -9 3 -15 -2 -13 -14 4 -94 -41 -94 -53 0
-6 -6 -9 -13 -6 -7 3 -19 -4 -26 -14 -6 -11 -16 -17 -22 -13 -6 3 -20 -2 -32
-13 -12 -10 -34 -25 -49 -33 -16 -7 -28 -17 -28 -22 0 -5 -5 -6 -10 -3 -6 3
-13 -1 -16 -9 -3 -9 -10 -13 -15 -10 -5 3 -9 0 -9 -5 0 -6 -7 -11 -15 -11 -8
0 -15 -5 -15 -11 0 -5 -5 -7 -10 -4 -6 3 -13 -1 -16 -9 -3 -9 -10 -13 -15 -10
-5 3 -12 -2 -15 -10 -3 -9 -12 -16 -19 -16 -7 0 -16 -7 -19 -16 -3 -8 -10 -13
-15 -10 -5 3 -12 -1 -15 -10 -4 -9 -13 -14 -21 -10 -8 3 -14 0 -12 -7 1 -7 -6
-11 -15 -11 -10 1 -16 -1 -15 -5 2 -3 -8 -17 -21 -31 -14 -14 -21 -18 -17 -10
8 13 7 13 -11 1 -10 -8 -31 -26 -46 -40 -16 -14 -28 -22 -28 -18 0 12 -61 -51
-64 -65 -1 -7 -5 -19 -9 -25 -5 -7 -5 -17 -2 -23 3 -5 1 -10 -6 -10 -8 0 -8
-4 1 -15 8 -10 9 -15 2 -15 -17 0 21 -76 52 -105 15 -14 36 -25 46 -25 10 0
21 -4 25 -9 3 -6 23 -9 45 -9 27 0 38 4 33 12 -4 7 -1 6 8 -1 9 -7 19 -9 25
-4 17 17 89 17 79 1 -3 -5 1 -10 10 -10 12 0 14 -6 9 -27 -7 -29 -44 -77 -52
-68 -3 2 -13 -7 -24 -20 -11 -14 -26 -25 -34 -25 -8 0 -14 -7 -14 -16 0 -8 -4
-12 -10 -9 -5 3 -10 1 -10 -6 0 -7 -3 -9 -6 -6 -4 4 -18 -6 -30 -21 -13 -15
-24 -23 -24 -18 0 6 -6 1 -14 -9 -8 -11 -12 -23 -10 -27 3 -4 -2 -5 -10 -2 -9
3 -16 1 -16 -4 0 -6 -9 -14 -20 -17 -11 -4 -18 -11 -15 -16 4 -5 1 -9 -5 -9
-6 0 -26 -16 -44 -35 -19 -19 -40 -35 -47 -35 -12 0 -12 -2 -1 -9 10 -6 8 -10
-8 -14 -13 -3 -19 -10 -15 -17 4 -6 1 -9 -7 -8 -7 2 -12 -3 -11 -9 2 -7 -2
-13 -9 -13 -18 0 -59 -51 -51 -63 3 -5 2 -8 -3 -4 -5 3 -18 -1 -29 -9 -10 -8
-15 -14 -9 -14 5 0 -3 -8 -19 -18 -15 -10 -24 -22 -20 -25 3 -4 1 -7 -5 -7 -6
0 -14 -9 -17 -20 -4 -11 -11 -18 -16 -15 -8 6 -13 -8 -10 -27 0 -4 -7 -4 -16
-1 -10 4 -14 2 -10 -4 3 -5 -3 -19 -13 -31 -11 -12 -20 -26 -20 -32 0 -6 -5
-8 -10 -5 -5 3 -10 -1 -10 -9 0 -8 -9 -20 -21 -26 -11 -7 -18 -18 -15 -25 3
-8 -3 -17 -15 -20 -10 -4 -19 -13 -19 -21 0 -8 -5 -14 -11 -14 -5 0 -7 -4 -4
-10 3 -5 1 -10 -4 -10 -6 0 -11 -5 -11 -11 0 -6 -10 -20 -23 -31 -12 -11 -15
-16 -7 -12 8 4 5 -3 -7 -15 -13 -12 -23 -29 -23 -37 0 -8 -4 -12 -10 -9 -5 3
-10 -3 -10 -14 0 -12 -4 -21 -9 -21 -5 0 -14 -13 -21 -30 -7 -16 -16 -27 -21
-25 -4 3 -6 -4 -4 -15 2 -11 -1 -20 -6 -20 -5 0 -14 -11 -19 -25 -5 -14 -14
-25 -20 -25 -5 0 -9 -3 -9 -7 4 -23 -2 -43 -11 -38 -9 5 -14 -16 -7 -31 1 -3
-6 -10 -16 -15 -9 -6 -15 -14 -12 -20 4 -5 0 -9 -7 -9 -8 0 -15 -9 -16 -20 -1
-11 -3 -29 -4 -39 -1 -11 -5 -18 -8 -16 -3 1 -11 -3 -18 -11 -10 -11 -10 -14
0 -14 10 0 10 -2 1 -8 -6 -4 -15 -20 -18 -35 -4 -15 -10 -27 -14 -27 -4 0 -8
-6 -8 -12 0 -7 -7 -29 -15 -48 -9 -19 -19 -44 -24 -55 -4 -11 -8 -22 -9 -25
-2 -3 -6 -15 -10 -27 -4 -13 -12 -20 -19 -16 -6 4 -5 0 2 -9 11 -14 10 -18 -5
-27 -14 -8 -15 -10 -3 -11 9 0 11 -3 4 -8 -5 -4 -18 -18 -27 -32 -9 -13 -17
-18 -17 -11 0 11 -3 11 -15 1 -8 -7 -15 -8 -15 -3 0 5 -12 10 -27 11 -16 1
-29 7 -31 12 -2 6 -10 6 -23 0 -13 -8 -19 -7 -19 0 0 7 -5 8 -12 3 -7 -4 -15
-8 -18 -8 -16 0 -80 -46 -76 -54 3 -5 -4 -11 -15 -14 -12 -3 -18 -10 -15 -15
3 -6 -1 -12 -9 -16 -8 -3 -15 -15 -15 -26 0 -11 -4 -20 -9 -20 -8 0 -35 -87
-48 -152 -3 -15 -9 -26 -13 -23 -4 3 -10 -3 -12 -13 -5 -16 -16 -18 -97 -18
-50 1 -91 -3 -91 -7 0 -5 -10 -7 -23 -5 -12 2 -28 -4 -35 -12 -9 -9 -11 -10
-7 -1 5 9 -1 8 -19 -4 -14 -10 -26 -14 -26 -11 0 3 -22 -6 -50 -20 -27 -14
-50 -30 -50 -36 0 -5 -4 -7 -8 -4 -5 3 -18 -4 -30 -14 -12 -11 -26 -20 -32
-20 -6 0 -8 -5 -5 -10 6 -10 -9 -15 -30 -10 -5 1 -7 -1 -4 -5 4 -3 -13 -26
-37 -51 -25 -25 -42 -49 -39 -54 3 -6 -1 -7 -10 -4 -9 4 -15 3 -14 -2 4 -17
-13 -44 -24 -37 -5 3 -7 1 -4 -4 4 -6 -2 -21 -13 -33 -11 -12 -17 -27 -14 -31
3 -5 -2 -9 -10 -9 -10 0 -13 -6 -10 -15 4 -8 1 -15 -5 -15 -7 0 -17 -13 -22
-30 -6 -16 -15 -30 -20 -30 -5 0 -9 -5 -9 -11 0 -5 6 -7 12 -3 7 4 3 -3 -10
-15 -12 -12 -20 -26 -17 -32 4 -5 1 -9 -5 -9 -7 0 -10 -7 -6 -15 3 -8 2 -15
-3 -15 -4 0 -8 -27 -8 -60 0 -33 4 -60 8 -60 5 0 8 -3 7 -7 -3 -17 15 -43 25
-36 6 4 8 0 4 -11 -4 -10 -3 -15 3 -11 6 3 10 2 10 -3 0 -6 20 -17 45 -25 25
-9 45 -13 45 -9 0 4 15 8 33 9 61 3 77 7 82 24 4 10 14 15 30 13 14 -1 25 3
25 9 0 8 4 7 9 -2 5 -8 14 -10 22 -6 8 5 11 4 6 0 -4 -5 0 -19 8 -31 9 -15 11
-25 5 -29 -6 -4 -8 -11 -5 -16 4 -5 1 -9 -5 -9 -6 0 -8 -4 -5 -10 3 -5 1 -10
-6 -10 -7 0 -10 -3 -6 -6 3 -4 0 -19 -8 -34 -8 -15 -11 -30 -8 -34 4 -3 1 -6
-5 -6 -6 0 -9 -7 -6 -15 4 -9 0 -15 -7 -15 -11 0 -11 -3 1 -10 12 -7 12 -10 1
-10 -7 0 -11 -6 -7 -15 3 -8 2 -15 -3 -15 -4 0 -8 -6 -9 -12 -1 -7 -3 -25 -6
-40 -2 -16 0 -28 4 -28 5 0 11 -13 15 -30 7 -32 42 -63 58 -53 6 3 8 2 5 -3
-3 -5 0 -15 8 -21 8 -9 15 -9 19 -2 4 6 11 7 18 1 21 -17 66 -10 92 14 14 13
25 21 25 19 0 -2 11 7 25 21 22 22 28 24 42 12 11 -8 14 -8 10 -1 -5 8 -1 11
11 10 18 -1 22 -9 23 -49 0 -10 5 -18 10 -18 5 0 7 -12 3 -27 -3 -16 -5 -32
-5 -38 0 -13 12 -105 15 -125 2 -8 6 -37 11 -65 4 -27 12 -56 17 -62 7 -9 7
-13 -2 -13 -9 0 -7 -7 6 -22 12 -13 13 -18 4 -13 -12 7 -13 6 -3 -7 7 -8 10
-18 6 -21 -3 -4 -1 -7 5 -7 7 0 12 -10 13 -22 0 -13 3 -17 6 -10 4 10 9 7 17
-10 7 -12 19 -22 28 -22 11 1 14 -4 11 -13 -5 -12 -1 -14 17 -8 15 5 20 4 16
-4 -4 -6 -1 -11 6 -12 7 0 30 -2 50 -3 21 -1 38 2 38 7 0 5 6 7 12 5 20 -7 80
58 81 87 0 13 3 23 7 20 4 -3 13 1 19 9 15 18 70 18 88 0 8 -8 11 -14 7 -14
-3 0 -2 -6 5 -13 8 -10 7 -17 -2 -27 -9 -10 -9 -11 1 -6 6 4 13 2 13 -3 5 -37
7 -52 9 -58 1 -5 2 -11 1 -15 0 -5 3 -8 9 -8 5 0 7 -6 4 -14 -3 -8 2 -26 11
-40 9 -14 14 -30 10 -36 -3 -5 -2 -10 3 -10 8 0 10 -6 14 -50 1 -11 6 -20 11
-20 4 0 6 -4 2 -9 -3 -5 -1 -12 3 -15 5 -3 8 -17 7 -31 -2 -14 1 -25 6 -25 5
0 9 -8 9 -18 0 -10 6 -24 12 -31 11 -11 10 -12 -2 -6 -13 8 -13 7 -1 -8 7 -9
10 -17 6 -17 -5 0 0 -10 11 -22 10 -12 13 -18 7 -14 -16 9 -16 4 -1 -29 6 -14
16 -25 21 -25 5 0 4 -7 -3 -15 -7 -8 -8 -15 -3 -15 5 0 10 -6 11 -12 2 -33 9
-69 14 -73 8 -8 -4 -65 -13 -65 -5 0 -9 -7 -9 -16 0 -8 -4 -12 -10 -9 -5 3
-10 -1 -10 -10 0 -9 -4 -14 -9 -11 -5 3 -23 -9 -39 -28 -17 -19 -33 -32 -36
-29 -3 4 -6 1 -6 -6 0 -7 -7 -19 -15 -27 -8 -9 -15 -12 -15 -8 0 3 -23 -17
-50 -45 -29 -30 -55 -49 -62 -45 -6 4 -8 3 -5 -3 8 -12 -38 -54 -49 -45 -4 4
-4 -1 -1 -10 4 -10 2 -18 -3 -18 -9 0 -53 -37 -121 -102 -16 -15 -29 -32 -29
-38 0 -10 -15 -14 -35 -10 -5 1 -7 -1 -3 -5 4 -4 -3 -17 -15 -29 -12 -11 -23
-28 -25 -36 -2 -8 -8 -16 -13 -18 -5 -2 -5 -11 -1 -20 10 -20 8 -54 -3 -72 -5
-8 -4 -11 3 -6 6 3 13 -3 17 -14 4 -11 11 -18 16 -15 5 3 6 -1 3 -9 -4 -11 0
-16 10 -16 9 0 16 -5 16 -11 0 -5 4 -8 9 -5 5 3 11 0 14 -7 3 -9 25 -14 64
-15 32 0 60 -1 63 -2 3 -1 25 -1 49 0 33 1 42 -1 36 -12 -3 -7 0 -5 8 5 8 10
17 14 20 10 3 -5 33 -6 66 -3 34 3 61 3 61 0 0 -3 16 -4 35 -2 24 3 35 0 35
-9 0 -7 3 -10 6 -6 14 14 33 -23 35 -71 2 -28 1 -54 -2 -56 -2 -3 -2 -34 1
-70 3 -42 2 -66 -5 -66 -5 0 -3 -5 5 -10 9 -6 10 -10 3 -10 -8 0 -9 -9 -3 -30
5 -19 5 -30 -1 -30 -6 0 -7 -6 -2 -12 4 -7 8 -22 8 -33 2 -31 16 -55 32 -55 8
0 11 -5 8 -10 -5 -9 1 -12 21 -9 4 0 10 -4 14 -10 3 -6 16 -13 28 -16 12 -2
27 -7 32 -10 6 -3 10 0 10 7 0 9 3 9 10 -2 6 -10 10 -11 10 -2 0 6 9 12 20 12
11 0 23 7 26 15 4 8 10 12 15 9 5 -3 12 2 15 10 3 9 11 13 17 9 7 -4 8 0 3 12
-5 15 -4 16 9 5 13 -11 15 -10 10 1 -3 9 6 21 25 32 16 10 30 26 30 35 0 13 2
14 9 3 6 -9 11 -10 15 -2 4 6 4 11 0 11 -4 0 6 10 22 23 17 12 47 39 67 59 20
21 37 32 37 26 0 -7 7 -3 15 8 11 14 14 15 15 4 0 -13 1 -13 10 0 7 11 10 11
10 2 0 -7 5 -10 10 -7 6 3 10 2 10 -4 0 -5 8 -12 18 -15 11 -4 25 -17 32 -31
7 -13 16 -22 20 -20 4 2 12 -7 18 -20 7 -14 19 -25 28 -25 10 0 15 -3 11 -6
-8 -8 16 -33 25 -27 5 2 8 -3 8 -12 0 -9 5 -13 10 -10 6 3 10 -1 10 -10 0 -9
5 -13 10 -10 6 3 10 0 10 -8 0 -17 27 -30 42 -20 7 3 8 1 4 -5 -5 -8 3 -12 24
-12 22 0 29 -4 24 -13 -6 -9 -5 -9 8 0 8 7 18 10 22 6 4 -4 11 -1 16 7 7 11
10 12 10 2 0 -10 4 -10 16 2 8 9 22 16 30 16 8 0 12 4 9 10 -3 5 -2 10 3 10 6
0 41 31 79 68 37 37 76 71 86 75 10 4 15 12 12 17 -4 6 -3 10 2 9 13 -4 63 23
58 31 -3 4 10 15 28 23 17 9 43 26 57 39 13 13 28 22 33 20 4 -1 18 8 30 21
22 23 55 42 70 39 4 -1 7 2 7 6 0 5 13 8 29 8 17 0 28 -3 25 -8 -3 -4 2 -8 10
-8 14 0 17 -5 16 -25 -1 -3 5 -12 12 -20 34 -37 38 -45 28 -45 -6 0 -2 -10 10
-22 11 -12 20 -28 20 -36 0 -20 45 -60 76 -68 13 -3 27 -10 29 -15 3 -4 17 -4
30 1 16 6 27 6 31 -2 4 -7 10 -5 16 5 5 9 15 14 23 11 8 -4 15 -1 15 4 0 6 9
14 20 17 11 4 17 11 14 17 -4 7 -2 8 4 4 7 -4 18 -4 25 1 6 4 21 9 32 10 10 2
22 7 25 11 3 4 16 13 29 20 19 11 22 11 15 0 -4 -7 2 -5 13 5 11 9 23 14 26
11 4 -4 13 -2 20 4 8 7 17 9 20 5 4 -3 7 -1 7 6 0 7 4 10 9 7 5 -3 25 1 45 9
20 8 36 12 36 9 0 -4 7 -1 15 6 8 7 15 10 15 6 0 -4 14 0 30 9 17 9 30 13 30
9 0 -4 6 -2 13 3 6 6 20 9 30 8 9 -2 15 1 12 5 -3 5 3 8 12 8 10 0 32 3 48 7
17 4 38 7 48 7 9 -1 17 2 17 6 0 4 17 7 38 7 20 -1 40 3 43 7 3 5 31 9 63 10
32 1 60 6 62 10 3 5 9 6 14 3 5 -3 18 -1 28 4 13 7 22 7 30 -1 9 -9 12 -9 12
-1 0 13 18 12 39 -1 10 -6 12 -5 7 2 -5 8 0 12 13 12 12 0 21 -5 21 -11 0 -8
4 -8 13 -1 6 5 29 9 50 8 20 -1 37 2 37 7 0 6 5 6 13 1 14 -11 37 -11 54 -1 6
4 14 3 18 -3 4 -7 12 -7 25 0 11 6 21 6 24 1 3 -5 17 -8 31 -8 13 0 22 4 19 9
-4 6 3 5 14 -1 14 -8 23 -8 27 -1 4 7 11 8 18 1 7 -5 32 -10 57 -12 25 -1 52
-6 61 -10 9 -5 21 -3 27 3 9 9 12 9 12 -1 0 -9 9 -12 25 -9 13 3 26 0 29 -6 3
-6 5 -5 5 3 1 10 7 10 27 -4 15 -9 23 -12 20 -6 -4 6 -2 11 3 11 6 0 11 -6 11
-12 0 -9 4 -8 10 2 6 10 10 11 10 3 0 -8 13 -13 31 -13 17 0 40 -5 51 -11 16
-9 23 -8 29 2 7 11 9 10 9 -4 0 -10 5 -15 10 -12 6 3 16 3 23 -2 6 -4 21 -9
32 -10 10 -2 22 -7 25 -11 3 -4 16 -7 30 -7 14 0 30 -4 37 -8 7 -5 18 -5 24
-1 7 4 9 3 6 -3 -6 -9 11 -16 77 -29 11 -3 26 -10 35 -17 12 -10 13 -9 7 2 -5
8 3 6 20 -5 15 -11 25 -14 21 -7 -13 22 21 7 42 -17 11 -14 20 -22 21 -17 0 4
17 -1 38 -11 48 -25 148 -24 167 1 6 9 14 14 17 12 3 -3 16 16 29 42 13 27 26
50 29 53 8 8 5 74 -4 89 -6 10 -5 12 2 7 7 -4 12 -1 12 7 0 19 49 40 64 28 9
-7 17 -7 26 2 10 9 11 9 6 0 -5 -8 -1 -13 9 -13 9 0 14 -4 11 -8 -2 -4 5 -9
16 -9 11 -1 30 -10 41 -20 15 -13 18 -14 13 -3 -7 13 -6 13 6 0 18 -20 62 -45
53 -30 -4 7 1 7 14 -2 12 -7 21 -16 21 -20 0 -5 7 -8 16 -8 8 0 22 -7 31 -16
9 -8 22 -13 30 -10 8 3 11 1 8 -4 -3 -6 1 -10 10 -10 9 0 13 -5 10 -10 -4 -6
-3 -10 2 -9 14 3 73 -23 73 -32 0 -5 9 -9 20 -9 11 0 20 -4 20 -10 0 -5 6 -10
14 -10 8 0 16 -4 18 -9 2 -5 10 -11 18 -13 8 -2 23 -11 34 -21 15 -13 22 -14
28 -5 5 9 8 8 8 -5 0 -10 5 -15 10 -12 6 3 10 -1 10 -9 0 -9 6 -15 13 -14 6 2
11 -2 10 -8 -1 -8 6 -10 19 -6 14 3 19 1 14 -6 -4 -7 -1 -12 8 -12 9 0 16 -4
16 -10 0 -5 7 -10 15 -10 8 0 15 -4 15 -10 0 -5 7 -10 15 -10 8 0 15 -5 15
-11 0 -5 5 -7 10 -4 6 3 10 -1 10 -11 0 -13 3 -14 14 -5 11 9 16 9 22 0 5 -8
3 -9 -6 -4 -8 5 -11 3 -8 -6 3 -8 14 -15 26 -17 12 -2 20 -8 17 -13 -4 -5 3
-9 15 -9 12 0 19 -4 16 -8 -3 -5 13 -9 35 -10 23 -1 45 -4 50 -8 5 -3 9 0 9 6
0 6 4 9 9 6 8 -6 59 28 73 49 4 5 13 18 20 29 7 10 22 27 32 37 15 14 16 19 5
20 -8 0 -4 4 9 9 12 5 22 15 22 23 0 16 68 48 76 36 3 -5 10 -7 15 -4 5 4 9
-2 9 -12 0 -15 2 -16 10 -3 8 13 10 12 10 -3 0 -10 7 -20 15 -23 8 -4 12 -10
9 -15 -3 -5 -1 -8 4 -7 6 2 23 -11 39 -28 15 -17 38 -36 51 -43 13 -7 20 -17
16 -23 -5 -7 -2 -9 8 -6 8 4 21 -2 28 -13 11 -15 17 -16 29 -6 12 9 13 9 7 -1
-9 -15 52 -11 102 8 35 13 38 19 20 40 -11 12 -10 12 3 2 13 -10 19 -10 27 0
6 7 11 16 11 21 1 4 1 8 2 10 7 23 10 47 9 67 -5 113 -4 310 2 310 5 0 8 6 8
13 0 17 10 18 128 21 51 2 95 6 98 9 3 3 12 3 20 0 17 -6 134 -9 134 -3 0 3
18 4 41 3 26 0 42 4 46 13 3 8 10 11 16 7 6 -4 8 0 4 10 -4 11 -2 14 8 11 14
-6 47 35 52 65 8 40 5 74 -8 99 -17 33 -94 112 -109 112 -6 0 -8 5 -5 10 3 6
2 10 -2 10 -5 0 -37 27 -71 60 -35 33 -65 60 -67 60 -8 0 -55 51 -55 60 0 5
-9 7 -20 5 -11 -2 -18 0 -15 4 6 11 -29 51 -44 51 -7 0 -10 4 -6 9 3 5 -4 12
-15 16 -18 6 -25 17 -21 38 1 5 -3 6 -8 2 -6 -3 -23 8 -39 25 -16 16 -35 30
-41 30 -7 0 -9 5 -6 10 3 6 0 10 -8 10 -23 0 -40 54 -33 105 4 25 11 45 16 45
5 0 7 6 4 14 -3 7 2 21 11 30 11 10 12 16 4 16 -7 0 -4 7 7 17 10 10 19 23 20
28 1 33 18 85 27 85 6 0 8 3 4 6 -3 4 0 19 9 35 8 16 11 29 7 29 -5 0 -1 5 7
10 13 8 13 10 1 10 -11 0 -10 4 4 13 10 8 15 19 11 25 -4 7 -2 12 3 12 6 0 11
7 11 15 0 8 5 15 11 15 5 0 8 4 5 9 -8 12 4 42 14 36 5 -3 6 4 3 14 -3 10 1
30 8 42 7 13 14 29 15 34 5 25 23 58 24 45 1 -8 6 -4 11 10 7 18 12 21 18 11
5 -7 12 -12 17 -12 20 2 43 -11 49 -27 3 -9 19 -33 36 -52 17 -19 28 -29 24
-22 -8 15 11 16 21 1 3 -6 15 -9 25 -6 11 3 19 1 19 -4 0 -6 9 -5 21 1 11 7
23 9 26 6 3 -3 12 2 20 12 10 11 12 12 8 2 -4 -8 1 -6 10 5 9 11 21 19 26 17
5 -1 9 2 9 8 0 5 10 21 22 35 22 25 30 49 32 93 1 12 5 22 9 22 5 0 6 4 3 8
-7 11 29 64 37 55 4 -3 7 -1 7 4 0 6 11 10 25 8 14 -1 25 1 25 5 0 4 19 7 43
6 31 0 41 3 39 14 -2 10 0 11 10 3 13 -10 23 -10 88 2 51 9 310 11 310 3 0 -4
11 -3 25 2 18 7 25 6 25 -3 0 -7 3 -8 8 -2 4 6 32 10 62 9 75 -1 146 19 177
50 14 14 22 26 17 26 -5 0 -4 4 1 8 6 4 19 24 29 44 13 27 29 41 55 49 43 14
93 40 103 54 4 6 8 7 8 3 0 -5 9 0 19 10 38 33 49 41 55 35 3 -3 10 6 16 21 6
17 14 24 22 20 7 -4 8 -3 4 5 -4 6 -3 17 2 24 12 14 8 91 -6 127 -21 53 -69
86 -118 79 -4 0 -11 5 -15 13 -6 9 -9 9 -9 1 0 -6 -12 -11 -27 -11 -46 1 -55
-1 -47 -13 4 -8 0 -8 -15 0 -11 7 -21 8 -21 3 0 -5 -12 -7 -27 -5 -16 2 -35 4
-43 3 -8 0 -23 0 -33 -1 -10 0 -31 12 -45 27 -15 15 -22 25 -16 21 6 -3 -4 26
-23 64 -18 39 -35 76 -36 82 -1 7 -5 14 -8 17 -3 3 -19 32 -35 65 -16 33 -32
62 -36 63 -5 2 -8 10 -8 18 0 9 -4 12 -10 9 -5 -3 -10 3 -10 14 0 11 -5 23
-10 26 -6 4 -8 11 -5 16 4 5 -2 9 -11 9 -10 0 -15 3 -11 6 3 3 -3 15 -13 27
-11 11 -17 24 -14 29 3 5 0 7 -8 6 -7 -2 -12 3 -10 10 1 6 -2 12 -7 12 -5 0
-19 16 -31 35 -12 19 -26 33 -31 29 -5 -3 -9 0 -9 5 0 16 -33 51 -47 51 -7 0
-10 7 -7 15 4 10 0 15 -11 15 -9 0 -13 5 -9 11 4 7 1 10 -6 7 -8 -2 -26 9 -42
25 -15 17 -28 26 -28 21 0 -5 -4 -4 -8 1 -10 15 -66 50 -74 47 -5 -1 -8 3 -8
10 0 6 -3 9 -6 5 -4 -3 -23 2 -44 13 -21 11 -40 16 -44 13 -3 -4 -6 -2 -6 3 0
5 -10 10 -22 10 -13 1 -33 4 -46 7 -13 4 -20 2 -17 -4 8 -12 -6 -11 -25 1 -9
6 -17 5 -22 -3 -4 -7 -8 -7 -8 -2 0 6 -17 9 -37 9 -44 -1 -65 5 -58 16 3 5 1
11 -5 15 -6 4 -8 11 -5 16 4 5 1 9 -6 9 -8 0 -8 4 1 15 7 8 8 15 3 15 -9 0
-11 6 -15 50 -1 11 -6 20 -10 20 -4 0 -8 6 -8 13 0 21 -30 77 -41 77 -5 0 -9
5 -9 11 0 14 -56 69 -70 69 -5 0 -10 5 -10 10 0 6 -11 10 -25 10 -14 0 -25 5
-25 10 0 7 -7 7 -21 -1 -15 -8 -19 -8 -15 0 4 6 0 11 -8 11 -9 0 -16 7 -16 15
0 8 -4 15 -8 15 -5 0 -9 6 -10 13 -3 38 -8 53 -20 60 -7 5 -10 12 -7 17 3 5 1
11 -4 15 -5 3 -8 14 -6 25 2 11 -1 20 -6 20 -6 0 -7 5 -4 10 3 5 1 10 -4 10
-6 0 -11 8 -11 19 0 10 -7 24 -15 31 -9 7 -14 18 -12 23 2 6 -9 35 -25 66 -15
30 -28 61 -28 68 0 7 -4 13 -10 13 -5 0 -10 6 -10 13 0 18 -28 75 -41 82 -5 4
-7 11 -4 16 4 5 1 9 -4 9 -6 0 -11 7 -11 15 0 8 -4 15 -10 15 -5 0 -9 3 -8 8
3 13 -25 62 -35 62 -6 0 -7 3 -4 7 4 3 -4 21 -18 39 -14 18 -25 36 -25 39 0 3
-12 22 -26 41 -15 19 -23 34 -19 34 4 0 -4 11 -19 25 -15 14 -25 29 -21 34 3
5 -4 12 -15 16 -11 3 -20 15 -20 26 0 10 -4 19 -10 19 -5 0 -10 5 -10 10 0 9
-30 47 -67 86 -7 7 -13 16 -13 21 0 4 -9 14 -20 21 -11 7 -20 17 -20 23 0 6
-14 24 -30 39 -16 15 -30 31 -30 35 0 4 -18 24 -40 46 -22 22 -40 44 -40 49 0
6 -3 10 -7 10 -14 0 -63 47 -56 54 3 3 -1 6 -10 6 -8 0 -19 9 -22 20 -3 11
-10 20 -15 20 -14 0 -79 68 -72 76 4 4 2 4 -4 1 -6 -3 -22 5 -37 19 -14 13
-31 24 -37 24 -6 0 -8 5 -5 10 3 6 -1 10 -10 10 -9 0 -14 4 -11 9 3 5 -8 14
-24 21 -16 7 -27 16 -24 21 3 5 -2 9 -10 9 -8 0 -21 9 -29 20 -8 11 -17 17
-20 13 -4 -3 -7 -1 -7 6 0 7 -4 9 -10 6 -5 -3 -10 1 -10 9 0 9 -3 15 -7 15
-21 -3 -31 3 -38 24 -11 32 -13 67 -4 67 4 0 15 7 23 16 9 9 16 11 16 4 0 -6
5 -8 12 -4 7 5 21 9 32 10 11 0 22 6 24 12 2 7 11 12 20 12 20 1 56 46 47 59
-3 5 -1 12 4 15 22 14 -5 131 -34 142 -8 4 -15 12 -15 20 0 8 -7 14 -15 14 -8
0 -15 5 -15 10 0 6 -11 16 -25 22 -14 6 -25 17 -25 24 0 8 -7 11 -17 7 -10 -3
-15 -3 -11 2 4 4 -14 23 -40 42 -26 18 -46 38 -44 44 1 6 -2 8 -7 5 -5 -4 -23
5 -39 19 -16 14 -33 25 -36 25 -9 0 -70 43 -74 53 -2 4 -7 5 -12 2 -4 -2 -20
7 -36 20 -16 14 -33 25 -37 25 -5 0 -5 5 -1 12 4 7 3 8 -4 4 -14 -8 -84 28
-74 39 4 5 2 5 -5 1 -6 -3 -14 -2 -18 4 -4 6 -11 8 -16 5 -5 -4 -9 -2 -9 3 0
8 -36 23 -43 19 -1 -1 -13 8 -26 20 -13 12 -28 20 -33 17 -4 -3 -8 0 -8 5 0 6
-9 11 -21 11 -11 0 -18 4 -14 9 3 6 -4 8 -15 6 -11 -2 -20 1 -20 6 0 10 -58
35 -71 32 -4 -1 -11 16 -17 37 -5 22 -7 40 -3 40 8 0 31 50 31 66 0 7 4 14 9
16 5 2 11 12 13 23 1 11 7 23 12 26 5 4 9 20 10 37 0 17 4 28 8 26 4 -3 7 4 7
13 0 20 4 43 11 58 3 6 5 42 5 81 0 49 4 70 11 67 6 -2 14 3 18 12 3 9 10 13
16 10 6 -4 7 1 3 11 -3 10 -2 15 3 12 10 -5 37 21 43 43 14 57 -3 192 -22 173
-4 -4 -7 0 -7 10 0 9 -4 15 -9 12 -5 -3 -11 3 -14 14 -3 11 -12 20 -20 20 -9
0 -19 9 -22 20 -3 11 -14 20 -23 20 -15 0 -15 2 -2 10 13 9 13 10 -1 10 -8 0
-24 8 -35 18 -18 17 -35 26 -59 32 -5 1 -20 6 -32 11 -14 5 -23 5 -23 -1 0 -5
-6 -7 -14 -4 -8 3 -17 1 -21 -5 -4 -8 -12 -8 -27 0 -11 6 -18 7 -15 2 3 -4
-17 -23 -44 -41 -40 -26 -51 -30 -55 -17 -3 8 -10 12 -15 9 -15 -9 -22 24 -22
112 -1 46 -5 84 -10 84 -4 0 -5 5 -2 10 3 6 2 10 -3 10 -6 0 -12 11 -16 23 -5
23 -66 99 -66 84 0 -4 -10 1 -22 13 -12 11 -28 20 -35 20 -7 0 -13 4 -13 10 0
5 -3 9 -7 8 -15 -3 -64 22 -86 44 -24 25 -25 28 -12 71 6 21 10 25 16 15 7
-10 9 -10 9 3 0 9 8 31 17 50 18 36 32 176 16 166 -5 -3 -9 2 -10 11 0 9 -3
36 -5 59 -2 23 -1 40 3 37 10 -6 18 24 19 71 0 58 -2 75 -12 75 -4 0 -8 9 -8
20 0 11 -5 20 -11 20 -7 0 -20 9 -29 21 -10 11 -28 21 -39 22 -11 0 -18 3 -16
6 3 2 -3 10 -13 17 -12 8 -19 26 -20 49 -1 20 -4 40 -7 45 -4 6 -1 10 6 10 9
0 9 3 0 14 -8 9 -8 16 -2 20 6 4 1 23 -12 49 -22 43 -47 75 -47 61 0 -4 -6 -1
-12 8 -7 9 -29 21 -48 27 -41 13 -141 10 -132 -3 3 -5 -2 -7 -11 -3 -10 3 -17
2 -17 -4 0 -6 -4 -8 -9 -5 -5 4 -22 1 -38 -6 -15 -6 -31 -11 -35 -10 -4 1 -10
-8 -13 -20 -6 -16 -9 -18 -16 -7 -6 10 -9 11 -9 2 0 -7 -6 -13 -14 -13 -8 0
-17 -7 -20 -16 -3 -8 -10 -12 -16 -9 -5 3 -10 -1 -10 -9 0 -9 -6 -13 -13 -10
-7 2 -19 -7 -27 -21 -7 -14 -20 -25 -27 -25 -8 0 -11 -4 -8 -10 6 -9 -8 -14
-27 -11 -5 0 -8 -3 -8 -9 0 -6 -9 -6 -24 0 -13 5 -27 6 -30 3 -3 -4 -6 -1 -6
5 0 6 -9 9 -20 7 -11 -2 -22 0 -25 5 -3 4 -14 6 -25 3 -11 -3 -20 0 -20 6 0 6
-7 11 -15 11 -16 0 -36 39 -28 53 2 4 -1 6 -9 5 -7 -2 -12 3 -10 10 1 6 -5 12
-14 12 -8 0 -12 5 -9 10 3 6 2 10 -3 10 -16 0 -52 41 -46 52 4 6 3 8 -4 4 -6
-3 -17 0 -25 8 -8 8 -17 12 -21 9 -3 -4 -6 -1 -6 6 0 7 -4 10 -9 7 -5 -4 -11
-2 -13 2 -5 13 -56 23 -62 13z"/>
</g>
</svg>
