<svg xmlns="http://www.w3.org/2000/svg" xmlns:xlink="http://www.w3.org/1999/xlink" width="190.413" height="142.385" viewBox="0 0 190.413 142.385">
  <defs>
    <linearGradient id="linear-gradient" x1="0.5" y1="1" x2="0.5" y2="-0.503" gradientUnits="objectBoundingBox">
      <stop offset="0" stop-color="#e9af97"/>
      <stop offset="0.909" stop-color="#f9edd0"/>
      <stop offset="1" stop-color="#fff"/>
    </linearGradient>
    <linearGradient id="linear-gradient-3" x1="0.501" y1="1" x2="0.501" gradientUnits="objectBoundingBox">
      <stop offset="0.08" stop-color="#f9b233"/>
      <stop offset="0.34" stop-color="#f9b233"/>
      <stop offset="0.55" stop-color="#f9b335"/>
      <stop offset="0.65" stop-color="#f9b63c"/>
      <stop offset="0.72" stop-color="#faba49"/>
      <stop offset="0.78" stop-color="#fac15b"/>
      <stop offset="0.84" stop-color="#fbca73"/>
      <stop offset="0.88" stop-color="#fcd590"/>
      <stop offset="0.93" stop-color="#fde2b2"/>
      <stop offset="0.97" stop-color="#fef1d9"/>
      <stop offset="1" stop-color="#fff"/>
    </linearGradient>
  </defs>
  <g id="Group_100" data-name="Group 100" transform="translate(-166.208 -492.381)">
    <g id="Laag_2" data-name="Laag 2" transform="translate(167.077 560.836) rotate(-41)">
      <g id="Laag_1" data-name="Laag 1" transform="translate(0 0)">
        <path id="Path_19" data-name="Path 19" d="M33.352.73a328.145,328.145,0,0,1-1.316,40.162C31.025,51.513,29.777,58.869,29.4,71.5a232.527,232.527,0,0,0,.658,25.67,17.54,17.54,0,0,1-9.873-.326C1.158,90.058-8.579,42.356,11.958,16.2A50.555,50.555,0,0,1,33.352.73Z" transform="translate(-0.499 -0.73)" stroke="#1d1d1b" stroke-miterlimit="10" stroke-width="1" fill="url(#linear-gradient)"/>
      </g>
    </g>
    <g id="Laag_2-2" data-name="Laag 2" transform="translate(200.341 539.918) rotate(-30)">
      <g id="Laag_1-2" data-name="Laag 1" transform="translate(0 0)">
        <path id="Path_20" data-name="Path 20" d="M.5,99.312a35.212,35.212,0,0,1,7.109.637c3.928.764,4.739,1.622,7.9,1.975,3.023.342,3.986-.253,8.557-.658a64.563,64.563,0,0,1,9.684-.116,256.6,256.6,0,0,1,.527-30.162c.716-9.394,1.606-14.549,2.3-20.726a192.5,192.5,0,0,0-.337-43.706,12.338,12.338,0,0,1-4.271-.395,13.3,13.3,0,0,1-5.6-3.291C24.206.9,18.667-.61,3.654,1.58" transform="translate(-0.5 -0.501)" stroke="#1d1d1b" stroke-miterlimit="10" stroke-width="1" fill="url(#linear-gradient)"/>
        <line id="Line_2" data-name="Line 2" x1="3.154" y2="97.763" transform="translate(0 1.047)" stroke="#1d1d1b" stroke-miterlimit="10" stroke-width="1" fill="url(#linear-gradient-3)"/>
      </g>
    </g>
    <g id="Laag_2-3" data-name="Laag 2" transform="translate(233.807 516.257) rotate(-24)">
      <g id="Laag_1-3" data-name="Laag 1" transform="translate(0 0)">
        <path id="Path_21" data-name="Path 21" d="M.753,0C.416,5.434.058,14.054.427,24.68c.527,14.5,1.748,15.055,1.643,26C1.959,62.32.516,65.574.1,81.287-.068,87.516.011,92.608.1,95.873a100.22,100.22,0,0,0,13.164.553,101.1,101.1,0,0,0,23.7-3.4c.09-5.413.316-13.733.99-23.917.922-13.981,1.869-19.067,1.975-28.635a159.554,159.554,0,0,0-1.975-26.655,35.317,35.317,0,0,0-11.19-4.608C20.637,7.872,17.683,9,12.6,7.567,9.61,6.751,5.329,4.829.753,0Z" stroke="#1d1d1b" stroke-miterlimit="10" stroke-width="1" fill="url(#linear-gradient)"/>
      </g>
    </g>
    <g id="Laag_2-4" data-name="Laag 2" transform="translate(271.661 520.241) rotate(-30)">
      <g id="Laag_1-4" data-name="Laag 1" transform="translate(0 0)">
        <path id="Path_22" data-name="Path 22" d="M3.881.69C3.2,10.368,2.975,18.23,2.912,23.4c-.242,14.581.416,20.91-.326,33.237C2.064,64.9,1.2,71.546.59,75.627,5.413,75.311,41.1,72.5,51.931,48.745a33.8,33.8,0,0,0,2.633-8.883A54.363,54.363,0,0,1,43.7,33.933C32.927,26.324,30.863,18.857,21.653,10.895A55.638,55.638,0,0,0,3.881.69Z" transform="translate(-0.59 -0.69)" stroke="#1d1d1b" stroke-miterlimit="10" stroke-width="1" fill="url(#linear-gradient)"/>
      </g>
    </g>
  </g>
</svg>
