<svg xmlns="http://www.w3.org/2000/svg" width="308.333" height="223.963" viewBox="0 0 308.333 223.963">
  <g id="Group_159" data-name="Group 159" transform="translate(-442.798 -1559.514)">
    <g id="Group_78" data-name="Group 78" transform="matrix(-0.998, 0.07, -0.07, -0.998, 635.354, 1741.966)">
      <g id="Laag_1-2" transform="matrix(-0.985, 0.174, -0.174, -0.985, 181.431, 157.121)">
        <g id="Group_20" data-name="Group 20" transform="translate(0 0)">
          <ellipse id="Ellipse_9" data-name="Ellipse 9" cx="72.451" cy="79.772" rx="72.451" ry="79.772" transform="translate(0 0)" fill="#0b6b08" stroke="#1d1d1b" stroke-miterlimit="10" stroke-width="1"/>
          <path id="Path_82" data-name="Path 82" d="M72.451,0C112.465,0,144.9,35.715,144.9,79.772s-32.438,79.772-72.451,79.772S0,123.829,0,79.772,32.438,0,72.451,0Z" transform="translate(11.196 0)" fill="#88d37a" stroke="#1d1d1b" stroke-width="1"/>
          <ellipse id="Ellipse_11" data-name="Ellipse 11" cx="46.946" cy="51.7" rx="46.946" ry="51.7" transform="translate(36.701 28.072)" fill="#a3e08a"/>
          <circle id="Ellipse_12" data-name="Ellipse 12" cx="31.115" cy="31.115" r="31.115" transform="translate(52.532 48.657)" fill="#cbf0a1" opacity="0.66"/>
        </g>
      </g>
      <g id="Laag_1-2-2" data-name="Laag_1-2" transform="matrix(0.695, 0.719, -0.719, 0.695, 62.157, 75.306)">
        <path id="Path_78" data-name="Path 78" d="M21.135,4.946c.049,2.677-6.314,5.956-12.11,5.343C5.086,9.873-.01,7.512,0,4.589.007,2.6,2.382.584,4.566.1,5.949-.213,6.314.3,9.261.55c3.318.277,3.727-.3,5.624.024,2.715.468,6.213,2.4,6.248,4.369Z" transform="translate(0 0)" fill="#bdea99" stroke="#1d1d1b" stroke-miterlimit="10" stroke-width="1"/>
      </g>
      <g id="Laag_1-2-3" data-name="Laag_1-2" transform="translate(90.716 65.798) rotate(100)">
        <path id="Path_78-2" data-name="Path 78" d="M21.135,4.946c.049,2.677-6.314,5.956-12.11,5.343C5.086,9.873-.01,7.512,0,4.589.007,2.6,2.382.584,4.566.1,5.949-.213,6.314.3,9.261.55c3.318.277,3.727-.3,5.624.024,2.715.468,6.213,2.4,6.248,4.369Z" transform="translate(0 0)" fill="#bdea99" stroke="#1d1d1b" stroke-miterlimit="10" stroke-width="1"/>
      </g>
      <g id="Laag_1-2-4" data-name="Laag_1-2" transform="matrix(-0.94, 0.342, -0.342, -0.94, 109.357, 93.476)">
        <path id="Path_78-3" data-name="Path 78" d="M21.135,4.946c.049,2.677-6.314,5.956-12.11,5.343C5.086,9.873-.01,7.512,0,4.589.007,2.6,2.382.584,4.566.1,5.949-.213,6.314.3,9.261.55c3.318.277,3.727-.3,5.624.024,2.715.468,6.213,2.4,6.248,4.369Z" transform="translate(0 0)" fill="#bdea99" stroke="#1d1d1b" stroke-miterlimit="10" stroke-width="1"/>
      </g>
      <g id="Laag_1-2-5" data-name="Laag_1-2" transform="translate(83.777 99.507) rotate(100)">
        <path id="Path_78-4" data-name="Path 78" d="M21.135,4.946c.049,2.677-6.314,5.956-12.11,5.343C5.086,9.873-.01,7.512,0,4.589.007,2.6,2.382.584,4.566.1,5.949-.213,6.314.3,9.261.55c3.318.277,3.727-.3,5.624.024,2.715.468,6.213,2.4,6.248,4.369Z" transform="translate(0 0)" fill="#bdea99" stroke="#1d1d1b" stroke-miterlimit="10" stroke-width="1"/>
      </g>
    </g>
    <g id="Group_79" data-name="Group 79" transform="matrix(-0.998, 0.07, -0.07, -0.998, 669.92, 1741.966)">
      <g id="Laag_1-2-6" data-name="Laag_1-2" transform="matrix(-0.985, 0.174, -0.174, -0.985, 181.431, 157.121)">
        <g id="Group_20-2" data-name="Group 20" transform="translate(0 0)">
          <ellipse id="Ellipse_9-2" data-name="Ellipse 9" cx="72.451" cy="79.772" rx="72.451" ry="79.772" transform="translate(0 0)" fill="#0b6b08" stroke="#1d1d1b" stroke-miterlimit="10" stroke-width="1"/>
          <path id="Path_82-2" data-name="Path 82" d="M72.451,0C112.465,0,144.9,35.715,144.9,79.772s-32.438,79.772-72.451,79.772S0,123.829,0,79.772,32.438,0,72.451,0Z" transform="translate(11.196 0)" fill="#88d37a" stroke="#1d1d1b" stroke-width="1"/>
          <ellipse id="Ellipse_11-2" data-name="Ellipse 11" cx="46.946" cy="51.7" rx="46.946" ry="51.7" transform="translate(36.701 28.072)" fill="#a3e08a"/>
          <circle id="Ellipse_12-2" data-name="Ellipse 12" cx="31.115" cy="31.115" r="31.115" transform="translate(52.532 48.657)" fill="#cbf0a1" opacity="0.66"/>
        </g>
      </g>
      <g id="Laag_1-2-7" data-name="Laag_1-2" transform="matrix(0.695, 0.719, -0.719, 0.695, 62.157, 75.306)">
        <path id="Path_78-5" data-name="Path 78" d="M21.135,4.946c.049,2.677-6.314,5.956-12.11,5.343C5.086,9.873-.01,7.512,0,4.589.007,2.6,2.382.584,4.566.1,5.949-.213,6.314.3,9.261.55c3.318.277,3.727-.3,5.624.024,2.715.468,6.213,2.4,6.248,4.369Z" transform="translate(0 0)" fill="#bdea99" stroke="#1d1d1b" stroke-miterlimit="10" stroke-width="1"/>
      </g>
      <g id="Laag_1-2-8" data-name="Laag_1-2" transform="translate(90.716 65.798) rotate(100)">
        <path id="Path_78-6" data-name="Path 78" d="M21.135,4.946c.049,2.677-6.314,5.956-12.11,5.343C5.086,9.873-.01,7.512,0,4.589.007,2.6,2.382.584,4.566.1,5.949-.213,6.314.3,9.261.55c3.318.277,3.727-.3,5.624.024,2.715.468,6.213,2.4,6.248,4.369Z" transform="translate(0 0)" fill="#bdea99" stroke="#1d1d1b" stroke-miterlimit="10" stroke-width="1"/>
      </g>
      <g id="Laag_1-2-9" data-name="Laag_1-2" transform="matrix(-0.94, 0.342, -0.342, -0.94, 109.357, 93.476)">
        <path id="Path_78-7" data-name="Path 78" d="M21.135,4.946c.049,2.677-6.314,5.956-12.11,5.343C5.086,9.873-.01,7.512,0,4.589.007,2.6,2.382.584,4.566.1,5.949-.213,6.314.3,9.261.55c3.318.277,3.727-.3,5.624.024,2.715.468,6.213,2.4,6.248,4.369Z" transform="translate(0 0)" fill="#bdea99" stroke="#1d1d1b" stroke-miterlimit="10" stroke-width="1"/>
      </g>
      <g id="Laag_1-2-10" data-name="Laag_1-2" transform="translate(83.777 99.507) rotate(100)">
        <path id="Path_78-8" data-name="Path 78" d="M21.135,4.946c.049,2.677-6.314,5.956-12.11,5.343C5.086,9.873-.01,7.512,0,4.589.007,2.6,2.382.584,4.566.1,5.949-.213,6.314.3,9.261.55c3.318.277,3.727-.3,5.624.024,2.715.468,6.213,2.4,6.248,4.369Z" transform="translate(0 0)" fill="#bdea99" stroke="#1d1d1b" stroke-miterlimit="10" stroke-width="1"/>
      </g>
    </g>
    <g id="Group_80" data-name="Group 80" transform="matrix(-0.998, 0.07, -0.07, -0.998, 716.198, 1754.038)">
      <g id="Laag_1-2-11" data-name="Laag_1-2" transform="matrix(-0.985, 0.174, -0.174, -0.985, 181.431, 157.121)">
        <g id="Group_20-3" data-name="Group 20" transform="translate(0 0)">
          <ellipse id="Ellipse_9-3" data-name="Ellipse 9" cx="72.451" cy="79.772" rx="72.451" ry="79.772" transform="translate(0 0)" fill="#0b6b08" stroke="#1d1d1b" stroke-miterlimit="10" stroke-width="1"/>
          <path id="Path_82-3" data-name="Path 82" d="M72.451,0C112.465,0,144.9,35.715,144.9,79.772s-32.438,79.772-72.451,79.772S0,123.829,0,79.772,32.438,0,72.451,0Z" transform="translate(11.196 0)" fill="#88d37a" stroke="#1d1d1b" stroke-width="1"/>
          <ellipse id="Ellipse_11-3" data-name="Ellipse 11" cx="46.946" cy="51.7" rx="46.946" ry="51.7" transform="translate(36.701 28.072)" fill="#a3e08a"/>
          <circle id="Ellipse_12-3" data-name="Ellipse 12" cx="31.115" cy="31.115" r="31.115" transform="translate(52.532 48.657)" fill="#cbf0a1" opacity="0.66"/>
        </g>
      </g>
      <g id="Laag_1-2-12" data-name="Laag_1-2" transform="matrix(0.695, 0.719, -0.719, 0.695, 62.157, 75.306)">
        <path id="Path_78-9" data-name="Path 78" d="M21.135,4.946c.049,2.677-6.314,5.956-12.11,5.343C5.086,9.873-.01,7.512,0,4.589.007,2.6,2.382.584,4.566.1,5.949-.213,6.314.3,9.261.55c3.318.277,3.727-.3,5.624.024,2.715.468,6.213,2.4,6.248,4.369Z" transform="translate(0 0)" fill="#bdea99" stroke="#1d1d1b" stroke-miterlimit="10" stroke-width="1"/>
      </g>
      <g id="Laag_1-2-13" data-name="Laag_1-2" transform="translate(90.716 65.798) rotate(100)">
        <path id="Path_78-10" data-name="Path 78" d="M21.135,4.946c.049,2.677-6.314,5.956-12.11,5.343C5.086,9.873-.01,7.512,0,4.589.007,2.6,2.382.584,4.566.1,5.949-.213,6.314.3,9.261.55c3.318.277,3.727-.3,5.624.024,2.715.468,6.213,2.4,6.248,4.369Z" transform="translate(0 0)" fill="#bdea99" stroke="#1d1d1b" stroke-miterlimit="10" stroke-width="1"/>
      </g>
      <g id="Laag_1-2-14" data-name="Laag_1-2" transform="matrix(-0.94, 0.342, -0.342, -0.94, 109.357, 93.476)">
        <path id="Path_78-11" data-name="Path 78" d="M21.135,4.946c.049,2.677-6.314,5.956-12.11,5.343C5.086,9.873-.01,7.512,0,4.589.007,2.6,2.382.584,4.566.1,5.949-.213,6.314.3,9.261.55c3.318.277,3.727-.3,5.624.024,2.715.468,6.213,2.4,6.248,4.369Z" transform="translate(0 0)" fill="#bdea99" stroke="#1d1d1b" stroke-miterlimit="10" stroke-width="1"/>
      </g>
      <g id="Laag_1-2-15" data-name="Laag_1-2" transform="translate(83.777 99.507) rotate(100)">
        <path id="Path_78-12" data-name="Path 78" d="M21.135,4.946c.049,2.677-6.314,5.956-12.11,5.343C5.086,9.873-.01,7.512,0,4.589.007,2.6,2.382.584,4.566.1,5.949-.213,6.314.3,9.261.55c3.318.277,3.727-.3,5.624.024,2.715.468,6.213,2.4,6.248,4.369Z" transform="translate(0 0)" fill="#bdea99" stroke="#1d1d1b" stroke-miterlimit="10" stroke-width="1"/>
      </g>
    </g>
    <g id="Group_81" data-name="Group 81" transform="matrix(-0.998, 0.07, -0.07, -0.998, 752.416, 1772.147)">
      <g id="Laag_1-2-16" data-name="Laag_1-2" transform="matrix(-0.985, 0.174, -0.174, -0.985, 181.431, 157.121)">
        <g id="Group_20-4" data-name="Group 20" transform="translate(0 0)">
          <ellipse id="Ellipse_9-4" data-name="Ellipse 9" cx="72.451" cy="79.772" rx="72.451" ry="79.772" transform="translate(0 0)" fill="#0b6b08" stroke="#1d1d1b" stroke-miterlimit="10" stroke-width="1"/>
          <path id="Path_82-4" data-name="Path 82" d="M72.451,0C112.465,0,144.9,35.715,144.9,79.772s-32.438,79.772-72.451,79.772S0,123.829,0,79.772,32.438,0,72.451,0Z" transform="translate(11.196 0)" fill="#88d37a" stroke="#1d1d1b" stroke-width="1"/>
          <ellipse id="Ellipse_11-4" data-name="Ellipse 11" cx="46.946" cy="51.7" rx="46.946" ry="51.7" transform="translate(36.701 28.072)" fill="#a3e08a"/>
          <circle id="Ellipse_12-4" data-name="Ellipse 12" cx="31.115" cy="31.115" r="31.115" transform="translate(52.532 48.657)" fill="#cbf0a1" opacity="0.66"/>
        </g>
      </g>
      <g id="Laag_1-2-17" data-name="Laag_1-2" transform="matrix(0.695, 0.719, -0.719, 0.695, 62.157, 75.306)">
        <path id="Path_78-13" data-name="Path 78" d="M21.135,4.946c.049,2.677-6.314,5.956-12.11,5.343C5.086,9.873-.01,7.512,0,4.589.007,2.6,2.382.584,4.566.1,5.949-.213,6.314.3,9.261.55c3.318.277,3.727-.3,5.624.024,2.715.468,6.213,2.4,6.248,4.369Z" transform="translate(0 0)" fill="#bdea99" stroke="#1d1d1b" stroke-miterlimit="10" stroke-width="1"/>
      </g>
      <g id="Laag_1-2-18" data-name="Laag_1-2" transform="translate(90.716 65.798) rotate(100)">
        <path id="Path_78-14" data-name="Path 78" d="M21.135,4.946c.049,2.677-6.314,5.956-12.11,5.343C5.086,9.873-.01,7.512,0,4.589.007,2.6,2.382.584,4.566.1,5.949-.213,6.314.3,9.261.55c3.318.277,3.727-.3,5.624.024,2.715.468,6.213,2.4,6.248,4.369Z" transform="translate(0 0)" fill="#bdea99" stroke="#1d1d1b" stroke-miterlimit="10" stroke-width="1"/>
      </g>
      <g id="Laag_1-2-19" data-name="Laag_1-2" transform="matrix(-0.94, 0.342, -0.342, -0.94, 109.357, 93.476)">
        <path id="Path_78-15" data-name="Path 78" d="M21.135,4.946c.049,2.677-6.314,5.956-12.11,5.343C5.086,9.873-.01,7.512,0,4.589.007,2.6,2.382.584,4.566.1,5.949-.213,6.314.3,9.261.55c3.318.277,3.727-.3,5.624.024,2.715.468,6.213,2.4,6.248,4.369Z" transform="translate(0 0)" fill="#bdea99" stroke="#1d1d1b" stroke-miterlimit="10" stroke-width="1"/>
      </g>
      <g id="Laag_1-2-20" data-name="Laag_1-2" transform="translate(83.777 99.507) rotate(100)">
        <path id="Path_78-16" data-name="Path 78" d="M21.135,4.946c.049,2.677-6.314,5.956-12.11,5.343C5.086,9.873-.01,7.512,0,4.589.007,2.6,2.382.584,4.566.1,5.949-.213,6.314.3,9.261.55c3.318.277,3.727-.3,5.624.024,2.715.468,6.213,2.4,6.248,4.369Z" transform="translate(0 0)" fill="#bdea99" stroke="#1d1d1b" stroke-miterlimit="10" stroke-width="1"/>
      </g>
    </g>
  </g>
</svg>
