<svg xmlns="http://www.w3.org/2000/svg" width="90.879" height="136.261" viewBox="0 0 90.879 136.261">
  <path id="Icon_ionic-ios-arrow-round-down" data-name="Icon ionic-ios-arrow-round-down" d="M100.386,94.772a6.185,6.185,0,0,0-8.709-.047L62.854,123.453V13.98a6.153,6.153,0,0,0-12.306,0V123.453L21.725,94.677a6.229,6.229,0,0,0-8.709.047,6.128,6.128,0,0,0,.047,8.661l39.283,39h0a6.91,6.91,0,0,0,1.94,1.278,5.872,5.872,0,0,0,2.366.473,6.169,6.169,0,0,0,4.307-1.751l39.283-39A6.029,6.029,0,0,0,100.386,94.772Z" transform="translate(-11.247 -7.875)" fill="#64270a"/>
</svg>
