<svg xmlns="http://www.w3.org/2000/svg" width="241.8" height="198.71" viewBox="0 0 241.8 198.71">
  <g id="Group_195" data-name="Group 195" transform="translate(-593.337 -700.012)">
    <path id="Path_112" data-name="Path 112" d="M148.567,63.106,12.22,63.92,29.189,21.31l134.75.423Z" transform="translate(612.548 777.183)" fill="#c6c6c6" stroke="#1d1d1b" stroke-miterlimit="10" stroke-width="2"/>
    <path id="Path_113" data-name="Path 113" d="M174.591,64.3,19.359,61.956,17.51,3.17,177.308.73Z" transform="translate(625.217 734.189)" fill="#c6c6c6" stroke="#1d1d1b" stroke-miterlimit="10" stroke-width="2"/>
    <path id="Path_114" data-name="Path 114" d="M48.037,61.122,30.156,105.393.81,104.807,45.841,2.94Z" transform="translate(594.69 738.677)" fill="#dadada" stroke="#1d1d1b" stroke-miterlimit="10" stroke-width="2"/>
    <path id="Path_115" data-name="Path 115" d="M102.141,57.262,60.8,155.666,59.55,103.472,102.084,2.22Z" transform="translate(698.829 737.632)" fill="#fff" stroke="#1d1d1b" stroke-miterlimit="10" stroke-width="2"/>
    <g id="Laag_1-2" transform="matrix(0.921, -0.391, 0.391, 0.921, 655.638, 774.99)">
      <path id="Path_100" data-name="Path 100" d="M138.554,64.611c-5.8,22.3-48.7,27.381-70.971,26.993C64.079,91.545,8.211,90.06.854,64.611-6.183,40.287,31.457-.614,69.709.007c23.712.388,40.911,16.636,46.4,21.839C123.024,28.378,143.058,47.314,138.554,64.611Z" transform="translate(0 0)" fill="#fffdfa" stroke="#1d1d1b" stroke-miterlimit="10" stroke-width="3"/>
    </g>
    <g id="Laag_1-2-2" data-name="Laag_1-2" transform="translate(614.426 763.426)">
      <path id="Path_100-2" data-name="Path 100" d="M145.528,68.132c-6.075,23.347-50.971,28.66-74.287,28.254-3.668-.061-62.146-1.615-69.847-28.254C-5.972,42.672,33.427-.14,73.466.51c24.82.406,42.823,17.414,48.573,22.859C129.273,30.207,150.242,50.028,145.528,68.132Z" transform="translate(-0.5 -0.503)" fill="#f4b2f4" stroke="#1d1d1b" stroke-miterlimit="10" stroke-width="3"/>
    </g>
    <path id="Path_111" data-name="Path 111" d="M163.448,93.329,3.1,93.492.57,38.437,162.112,33.29Z" transform="translate(594.93 804.23)" fill="#fff" stroke="#1d1d1b" stroke-miterlimit="10" stroke-width="2"/>
    <path id="Path_121" data-name="Path 121" d="M148.567,63.106,12.22,63.92,29.189,21.31l134.75.423Z" transform="translate(612.548 777.183)" fill="#c6c6c6" stroke="#1d1d1b" stroke-miterlimit="10" stroke-width="2"/>
    <path id="Path_122" data-name="Path 122" d="M174.591,64.3,19.359,61.956,17.51,3.17,177.308.73Z" transform="translate(625.217 734.189)" fill="#c6c6c6" stroke="#1d1d1b" stroke-miterlimit="10" stroke-width="2"/>
    <path id="Path_123" data-name="Path 123" d="M48.037,61.122,30.156,105.393.81,104.807,45.841,2.94Z" transform="translate(594.69 738.677)" fill="#dadada" stroke="#1d1d1b" stroke-miterlimit="10" stroke-width="2"/>
    <path id="Path_124" data-name="Path 124" d="M102.141,57.262,60.8,155.666,59.55,103.472,102.084,2.22Z" transform="translate(698.829 737.632)" fill="#fff" stroke="#1d1d1b" stroke-miterlimit="10" stroke-width="2"/>
    <g id="Laag_1-2-3" data-name="Laag_1-2" transform="matrix(0.921, -0.391, 0.391, 0.921, 650.187, 762.138)">
      <path id="Path_100-3" data-name="Path 100" d="M153.253,74.456c-6.42,25.7-53.861,31.553-78.5,31.106C70.877,105.5,9.082,103.784.945,74.456-6.839,46.426,34.795-.708,77.1.008c26.227.447,45.251,19.171,51.328,25.167C136.076,32.7,158.234,54.524,153.253,74.456Z" transform="translate(0 0)" fill="#fffdfa" stroke="#1d1d1b" stroke-miterlimit="10" stroke-width="3"/>
    </g>
    <g id="Laag_1-2-4" data-name="Laag_1-2" transform="translate(594.367 748.095)">
      <path id="Path_100-4" data-name="Path 100" d="M163.874,76.687c-6.844,26.3-57.418,32.286-83.684,31.828-4.132-.069-70.008-1.82-78.683-31.828C-6.79,48.007,37.592-.221,82.7.511c27.96.458,48.24,19.616,54.717,25.751C145.562,33.964,169.184,56.293,163.874,76.687Z" transform="translate(0 0)" fill="#e1a95d" stroke="#1d1d1b" stroke-miterlimit="10" stroke-width="3"/>
    </g>
  </g>
</svg>
