<svg xmlns="http://www.w3.org/2000/svg" width="235.707" height="196.128" viewBox="0 0 235.707 196.128">
  <g id="Group_196" data-name="Group 196" transform="translate(-518.027 -993.595)">
    <path id="Path_171" data-name="Path 171" d="M148.567,63.106,12.22,63.92,29.189,21.31l134.75.423Z" transform="translate(540.109 1068.183)" fill="#c6c6c6" stroke="#1d1d1b" stroke-miterlimit="10" stroke-width="2"/>
    <path id="Path_172" data-name="Path 172" d="M174.591,64.3,19.359,61.956,17.51,3.17,177.308.73Z" transform="translate(552.778 1025.189)" fill="#c6c6c6" stroke="#1d1d1b" stroke-miterlimit="10" stroke-width="2"/>
    <path id="Path_173" data-name="Path 173" d="M48.037,61.122,30.156,105.393.81,104.807,45.841,2.94Z" transform="translate(522.251 1029.677)" fill="#dadada" stroke="#1d1d1b" stroke-miterlimit="10" stroke-width="2"/>
    <path id="Path_174" data-name="Path 174" d="M102.141,57.262,60.8,155.666,59.55,103.472,102.084,2.22Z" transform="translate(626.39 1028.632)" fill="#fff" stroke="#1d1d1b" stroke-miterlimit="10" stroke-width="2"/>
    <g id="Laag_1-2" transform="matrix(0.921, -0.391, 0.391, 0.921, 583.199, 1065.99)">
      <path id="Path_100" data-name="Path 100" d="M138.554,64.611c-5.8,22.3-48.7,27.381-70.971,26.993C64.079,91.545,8.211,90.06.854,64.611-6.183,40.287,31.457-.614,69.709.007c23.712.388,40.911,16.636,46.4,21.839C123.024,28.378,143.058,47.314,138.554,64.611Z" transform="translate(0 0)" fill="#fffdfa" stroke="#1d1d1b" stroke-miterlimit="10" stroke-width="3"/>
    </g>
    <g id="Laag_1-2-2" data-name="Laag_1-2" transform="translate(541.987 1054.426)">
      <path id="Path_100-2" data-name="Path 100" d="M145.528,68.132c-6.075,23.347-50.971,28.66-74.287,28.254-3.668-.061-62.146-1.615-69.847-28.254C-5.972,42.672,33.427-.14,73.466.51c24.82.406,42.823,17.414,48.573,22.859C129.273,30.207,150.242,50.028,145.528,68.132Z" transform="translate(-0.5 -0.503)" fill="#f4b2f4" stroke="#1d1d1b" stroke-miterlimit="10" stroke-width="3"/>
    </g>
    <path id="Path_175" data-name="Path 175" d="M163.448,93.329,3.1,93.492.57,38.437,162.112,33.29Z" transform="translate(522.491 1095.23)" fill="#fff" stroke="#1d1d1b" stroke-miterlimit="10" stroke-width="2"/>
    <path id="Path_176" data-name="Path 176" d="M148.567,63.106,12.22,63.92,29.189,21.31l134.75.423Z" transform="translate(540.109 1068.183)" fill="#c6c6c6" stroke="#1d1d1b" stroke-miterlimit="10" stroke-width="2"/>
    <path id="Path_177" data-name="Path 177" d="M174.591,64.3,19.359,61.956,17.51,3.17,177.308.73Z" transform="translate(552.778 1025.189)" fill="#c6c6c6" stroke="#1d1d1b" stroke-miterlimit="10" stroke-width="2"/>
    <path id="Path_178" data-name="Path 178" d="M48.037,61.122,30.156,105.393.81,104.807,45.841,2.94Z" transform="translate(522.251 1029.677)" fill="#dadada" stroke="#1d1d1b" stroke-miterlimit="10" stroke-width="2"/>
    <path id="Path_179" data-name="Path 179" d="M102.141,57.262,60.8,155.666,59.55,103.472,102.084,2.22Z" transform="translate(626.39 1028.632)" fill="#fff" stroke="#1d1d1b" stroke-miterlimit="10" stroke-width="2"/>
    <g id="Laag_1-2-3" data-name="Laag_1-2" transform="translate(608.322 994.592)">
      <path id="Path_100-3" data-name="Path 100" d="M143.25,67.07c-5.98,22.98-50.17,28.21-73.12,27.81-3.61-.06-61.17-1.59-68.75-27.81C-5.87,42.01,32.91-.13,72.32.51c24.43.4,42.15,17.14,47.81,22.5C127.25,29.74,147.89,49.25,143.25,67.07Z" fill="#e1a95d" stroke="#1d1d1b" stroke-miterlimit="10" stroke-width="3"/>
    </g>
    <g id="Laag_1-2-4" data-name="Laag_1-2" transform="translate(546.174 1006.724)">
      <path id="Path_100-4" data-name="Path 100" d="M143.25,67.07c-5.98,22.98-50.17,28.21-73.12,27.81-3.61-.06-61.17-1.59-68.75-27.81C-5.87,42.01,32.91-.13,72.32.51c24.43.4,42.15,17.14,47.81,22.5C127.25,29.74,147.89,49.25,143.25,67.07Z" fill="#6c3f19" stroke="#1d1d1b" stroke-miterlimit="10" stroke-width="3"/>
    </g>
    <g id="Laag_1-2-5" data-name="Laag_1-2" transform="matrix(0.921, -0.391, 0.391, 0.921, 574.021, 1074.281)">
      <path id="Path_100-5" data-name="Path 100" d="M149.386,64.611c-6.258,22.3-52.5,27.381-76.519,26.993C69.089,91.545,8.853,90.06.921,64.611c-7.587-24.323,33-65.225,74.238-64.6,25.566.388,44.109,16.636,50.032,21.839C132.642,28.378,154.242,47.314,149.386,64.611Z" transform="translate(0 0)" fill="#fffdfa" stroke="#1d1d1b" stroke-miterlimit="10" stroke-width="3"/>
    </g>
    <g id="Laag_1-2-6" data-name="Laag_1-2" transform="translate(519.554 1054.426)">
      <path id="Path_100-6" data-name="Path 100" d="M145.528,68.132c-6.075,23.347-50.971,28.66-74.287,28.254-3.668-.061-62.146-1.615-69.847-28.254C-5.972,42.672,33.427-.14,73.466.51c24.82.406,42.823,17.414,48.573,22.859C129.273,30.207,150.242,50.028,145.528,68.132Z" transform="translate(-0.5 -0.503)" fill="#f4b2f4" stroke="#1d1d1b" stroke-miterlimit="10" stroke-width="3"/>
    </g>
  </g>
</svg>

