<svg xmlns="http://www.w3.org/2000/svg" width="493.131" height="375.455" viewBox="0 0 493.131 375.455">
  <g id="Group_153" data-name="Group 153" transform="translate(-3966.363 -5913.709)">
    <g id="Laag_1-2" transform="translate(3967.35 6053.13)">
      <g id="b" transform="translate(0 0)">
        <g id="c">
          <path id="Path_110" data-name="Path 110" d="M153.358,25.707C146.279-3.5,6.192-4.221,2.093,15.373c-.522,2.488,1.274,4.714,2.273,6.019,27.809,36.315,13.1,102.912,33.29,110.052,8.921,3.148,16.676-8.123,57.414-46.281,49.106-45.989,60.393-50.734,58.274-59.441h.015Z" transform="translate(-1.999 -2.004)" fill="#f9b233" stroke="#1d1d1b" stroke-miterlimit="10" stroke-width="2"/>
        </g>
      </g>
    </g>
    <g id="Laag_1-2-2" data-name="Laag_1-2" transform="matrix(0.259, -0.966, 0.966, 0.259, 4048.283, 6254.342)">
      <g id="b-2" data-name="b" transform="translate(0 0)">
        <g id="c-2" data-name="c">
          <path id="Path_110-2" data-name="Path 110" d="M151.359,23.7C144.28-5.5,4.193-6.224.093,13.369c-.522,2.488,1.274,4.714,2.273,6.019C30.174,55.7,15.464,122.3,35.656,129.44c8.921,3.148,16.676-8.123,57.414-46.281,49.106-45.989,60.393-50.734,58.274-59.441h.015Z" fill="#f9b233" stroke="#1d1d1b" stroke-miterlimit="10" stroke-width="2"/>
        </g>
      </g>
    </g>
    <g id="Laag_1-2-3" data-name="Laag_1-2" transform="matrix(0.259, -0.966, 0.966, 0.259, 4126.58, 6164.316)">
      <g id="b-3" data-name="b" transform="translate(0 0)">
        <g id="c-3" data-name="c">
          <path id="Path_110-3" data-name="Path 110" d="M151.359,23.7C144.28-5.5,4.193-6.224.093,13.369c-.522,2.488,1.274,4.714,2.273,6.019C30.174,55.7,15.464,122.3,35.656,129.44c8.921,3.148,16.676-8.123,57.414-46.281,49.106-45.989,60.393-50.734,58.274-59.441h.015Z" fill="#f9b233" stroke="#1d1d1b" stroke-miterlimit="10" stroke-width="2"/>
        </g>
      </g>
    </g>
    <g id="Laag_1-2-4" data-name="Laag_1-2" transform="translate(4069.402 5972.356) rotate(40)">
      <g id="b-4" data-name="b" transform="translate(0 0)">
        <g id="c-4" data-name="c">
          <path id="Path_110-4" data-name="Path 110" d="M151.359,23.7C144.28-5.5,4.193-6.224.093,13.369c-.522,2.488,1.274,4.714,2.273,6.019C30.174,55.7,15.464,122.3,35.656,129.44c8.921,3.148,16.676-8.123,57.414-46.281,49.106-45.989,60.393-50.734,58.274-59.441h.015Z" fill="#f9b233" stroke="#1d1d1b" stroke-miterlimit="10" stroke-width="2"/>
        </g>
      </g>
    </g>
    <g id="Laag_1-2-5" data-name="Laag_1-2" transform="matrix(0.819, -0.574, 0.574, 0.819, 4002.063, 6178.517)">
      <g id="b-5" data-name="b" transform="translate(0 0)">
        <g id="c-5" data-name="c">
          <path id="Path_110-5" data-name="Path 110" d="M151.359,23.7C144.28-5.5,4.193-6.224.093,13.369c-.522,2.488,1.274,4.714,2.273,6.019C30.174,55.7,15.464,122.3,35.656,129.44c8.921,3.148,16.676-8.123,57.414-46.281,49.106-45.989,60.393-50.734,58.274-59.441h.015Z" fill="#f9b233" stroke="#1d1d1b" stroke-miterlimit="10" stroke-width="2"/>
        </g>
      </g>
    </g>
    <g id="Laag_1-2-6" data-name="Laag_1-2" transform="matrix(0.819, -0.574, 0.574, 0.819, 4119.909, 6159.881)">
      <g id="b-6" data-name="b" transform="translate(0 0)">
        <g id="c-6" data-name="c">
          <path id="Path_110-6" data-name="Path 110" d="M151.359,23.7C144.28-5.5,4.193-6.224.093,13.369c-.522,2.488,1.274,4.714,2.273,6.019C30.174,55.7,15.464,122.3,35.656,129.44c8.921,3.148,16.676-8.123,57.414-46.281,49.106-45.989,60.393-50.734,58.274-59.441h.015Z" fill="#f9b233" stroke="#1d1d1b" stroke-miterlimit="10" stroke-width="2"/>
        </g>
      </g>
    </g>
    <g id="Laag_1-2-7" data-name="Laag_1-2" transform="translate(4106.924 6038.794)">
      <g id="b-7" data-name="b" transform="translate(0 0)">
        <g id="c-7" data-name="c">
          <path id="Path_110-7" data-name="Path 110" d="M153.358,25.707C146.279-3.5,6.192-4.221,2.093,15.373c-.522,2.488,1.274,4.714,2.273,6.019,27.809,36.315,13.1,102.912,33.29,110.052,8.921,3.148,16.676-8.123,57.414-46.281,49.106-45.989,60.393-50.734,58.274-59.441h.015Z" transform="translate(-1.999 -2.004)" fill="#f9b233" stroke="#1d1d1b" stroke-miterlimit="10" stroke-width="2"/>
        </g>
      </g>
    </g>
    <g id="Laag_1-2-8" data-name="Laag_1-2" transform="matrix(0.259, -0.966, 0.966, 0.259, 4187.856, 6240.007)">
      <g id="b-8" data-name="b" transform="translate(0 0)">
        <g id="c-8" data-name="c">
          <path id="Path_110-8" data-name="Path 110" d="M151.359,23.7C144.28-5.5,4.193-6.224.093,13.369c-.522,2.488,1.274,4.714,2.273,6.019C30.174,55.7,15.464,122.3,35.656,129.44c8.921,3.148,16.676-8.123,57.414-46.281,49.106-45.989,60.393-50.734,58.274-59.441h.015Z" fill="#f9b233" stroke="#1d1d1b" stroke-miterlimit="10" stroke-width="2"/>
        </g>
      </g>
    </g>
    <g id="Laag_1-2-9" data-name="Laag_1-2" transform="matrix(0.259, -0.966, 0.966, 0.259, 4266.154, 6149.981)">
      <g id="b-9" data-name="b" transform="translate(0 0)">
        <g id="c-9" data-name="c">
          <path id="Path_110-9" data-name="Path 110" d="M151.359,23.7C144.28-5.5,4.193-6.224.093,13.369c-.522,2.488,1.274,4.714,2.273,6.019C30.174,55.7,15.464,122.3,35.656,129.44c8.921,3.148,16.676-8.123,57.414-46.281,49.106-45.989,60.393-50.734,58.274-59.441h.015Z" fill="#f9b233" stroke="#1d1d1b" stroke-miterlimit="10" stroke-width="2"/>
        </g>
      </g>
    </g>
    <g id="Laag_1-2-10" data-name="Laag_1-2" transform="translate(4208.977 5958.021) rotate(40)">
      <g id="b-10" data-name="b" transform="translate(0 0)">
        <g id="c-10" data-name="c">
          <path id="Path_110-10" data-name="Path 110" d="M151.359,23.7C144.28-5.5,4.193-6.224.093,13.369c-.522,2.488,1.274,4.714,2.273,6.019C30.174,55.7,15.464,122.3,35.656,129.44c8.921,3.148,16.676-8.123,57.414-46.281,49.106-45.989,60.393-50.734,58.274-59.441h.015Z" fill="#f9b233" stroke="#1d1d1b" stroke-miterlimit="10" stroke-width="2"/>
        </g>
      </g>
    </g>
    <g id="Laag_1-2-11" data-name="Laag_1-2" transform="matrix(0.819, -0.574, 0.574, 0.819, 4141.637, 6164.181)">
      <g id="b-11" data-name="b" transform="translate(0 0)">
        <g id="c-11" data-name="c">
          <path id="Path_110-11" data-name="Path 110" d="M151.359,23.7C144.28-5.5,4.193-6.224.093,13.369c-.522,2.488,1.274,4.714,2.273,6.019C30.174,55.7,15.464,122.3,35.656,129.44c8.921,3.148,16.676-8.123,57.414-46.281,49.106-45.989,60.393-50.734,58.274-59.441h.015Z" fill="#f9b233" stroke="#1d1d1b" stroke-miterlimit="10" stroke-width="2"/>
        </g>
      </g>
    </g>
    <g id="Laag_1-2-12" data-name="Laag_1-2" transform="matrix(0.819, -0.574, 0.574, 0.819, 4259.484, 6145.545)">
      <g id="b-12" data-name="b" transform="translate(0 0)">
        <g id="c-12" data-name="c">
          <path id="Path_110-12" data-name="Path 110" d="M151.359,23.7C144.28-5.5,4.193-6.224.093,13.369c-.522,2.488,1.274,4.714,2.273,6.019C30.174,55.7,15.464,122.3,35.656,129.44c8.921,3.148,16.676-8.123,57.414-46.281,49.106-45.989,60.393-50.734,58.274-59.441h.015Z" fill="#f9b233" stroke="#1d1d1b" stroke-miterlimit="10" stroke-width="2"/>
        </g>
      </g>
    </g>
    <g id="Laag_1-2-13" data-name="Laag_1-2" transform="translate(4079.294 5995.901)">
      <g id="b-13" data-name="b" transform="translate(0 0)">
        <g id="c-13" data-name="c">
          <path id="Path_110-13" data-name="Path 110" d="M153.358,25.707C146.279-3.5,6.192-4.221,2.093,15.373c-.522,2.488,1.274,4.714,2.273,6.019,27.809,36.315,13.1,102.912,33.29,110.052,8.921,3.148,16.676-8.123,57.414-46.281,49.106-45.989,60.393-50.734,58.274-59.441h.015Z" transform="translate(-1.999 -2.004)" fill="#f9b233" stroke="#1d1d1b" stroke-miterlimit="10" stroke-width="2"/>
        </g>
      </g>
    </g>
    <g id="Laag_1-2-14" data-name="Laag_1-2" transform="matrix(0.259, -0.966, 0.966, 0.259, 4160.228, 6197.113)">
      <g id="b-14" data-name="b" transform="translate(0 0)">
        <g id="c-14" data-name="c">
          <path id="Path_110-14" data-name="Path 110" d="M151.359,23.7C144.28-5.5,4.193-6.224.093,13.369c-.522,2.488,1.274,4.714,2.273,6.019C30.174,55.7,15.464,122.3,35.656,129.44c8.921,3.148,16.676-8.123,57.414-46.281,49.106-45.989,60.393-50.734,58.274-59.441h.015Z" fill="#f9b233" stroke="#1d1d1b" stroke-miterlimit="10" stroke-width="2"/>
        </g>
      </g>
    </g>
    <g id="Laag_1-2-15" data-name="Laag_1-2" transform="matrix(0.259, -0.966, 0.966, 0.259, 4238.524, 6107.088)">
      <g id="b-15" data-name="b" transform="translate(0 0)">
        <g id="c-15" data-name="c">
          <path id="Path_110-15" data-name="Path 110" d="M151.359,23.7C144.28-5.5,4.193-6.224.093,13.369c-.522,2.488,1.274,4.714,2.273,6.019C30.174,55.7,15.464,122.3,35.656,129.44c8.921,3.148,16.676-8.123,57.414-46.281,49.106-45.989,60.393-50.734,58.274-59.441h.015Z" fill="#f9b233" stroke="#1d1d1b" stroke-miterlimit="10" stroke-width="2"/>
        </g>
      </g>
    </g>
    <g id="Laag_1-2-16" data-name="Laag_1-2" transform="translate(4181.347 5915.127) rotate(40)">
      <g id="b-16" data-name="b" transform="translate(0 0)">
        <g id="c-16" data-name="c">
          <path id="Path_110-16" data-name="Path 110" d="M151.359,23.7C144.28-5.5,4.193-6.224.093,13.369c-.522,2.488,1.274,4.714,2.273,6.019C30.174,55.7,15.464,122.3,35.656,129.44c8.921,3.148,16.676-8.123,57.414-46.281,49.106-45.989,60.393-50.734,58.274-59.441h.015Z" fill="#f9b233" stroke="#1d1d1b" stroke-miterlimit="10" stroke-width="2"/>
        </g>
      </g>
    </g>
    <g id="Laag_1-2-17" data-name="Laag_1-2" transform="matrix(0.819, -0.574, 0.574, 0.819, 4114.008, 6121.287)">
      <g id="b-17" data-name="b" transform="translate(0 0)">
        <g id="c-17" data-name="c">
          <path id="Path_110-17" data-name="Path 110" d="M151.359,23.7C144.28-5.5,4.193-6.224.093,13.369c-.522,2.488,1.274,4.714,2.273,6.019C30.174,55.7,15.464,122.3,35.656,129.44c8.921,3.148,16.676-8.123,57.414-46.281,49.106-45.989,60.393-50.734,58.274-59.441h.015Z" fill="#f9b233" stroke="#1d1d1b" stroke-miterlimit="10" stroke-width="2"/>
        </g>
      </g>
    </g>
    <g id="Laag_1-2-18" data-name="Laag_1-2" transform="matrix(0.819, -0.574, 0.574, 0.819, 4231.854, 6102.652)">
      <g id="b-18" data-name="b" transform="translate(0 0)">
        <g id="c-18" data-name="c">
          <path id="Path_110-18" data-name="Path 110" d="M151.359,23.7C144.28-5.5,4.193-6.224.093,13.369c-.522,2.488,1.274,4.714,2.273,6.019C30.174,55.7,15.464,122.3,35.656,129.44c8.921,3.148,16.676-8.123,57.414-46.281,49.106-45.989,60.393-50.734,58.274-59.441h.015Z" fill="#f9b233" stroke="#1d1d1b" stroke-miterlimit="10" stroke-width="2"/>
        </g>
      </g>
    </g>
  </g>
</svg>
