<svg xmlns="http://www.w3.org/2000/svg" width="389.687" height="450.854" viewBox="0 0 389.687 450.854">
  <g id="Group_145" data-name="Group 145" transform="translate(-268.691 -1398.167)">
    <g id="b" transform="translate(301.844 1462.136) rotate(-19)">
      <g id="c" transform="translate(0 0)">
        <path id="Path_1" data-name="Path 1" d="M115.719,7.668c0,14.274-25.909,25.857-57.86,25.857S0,21.955,0,7.668,25.909,3.439,57.86,3.439,115.719-6.607,115.719,7.668Z" transform="translate(90.946 291.973)" fill="#fff" stroke="#1d1d1b" stroke-miterlimit="10" stroke-width="3"/>
        <path id="Path_2" data-name="Path 2" d="M90.715,78.318c-9.337,10.808-36.507,2.626-60.683-18.28s-36.2-46.592-26.868-57.4S25.528,16.375,49.7,37.281,100.052,67.511,90.715,78.318Z" transform="translate(44.617 133.141)" fill="#fff" stroke="#1d1d1b" stroke-miterlimit="10" stroke-width="3"/>
        <path id="Path_3" data-name="Path 3" d="M.44,44.986C-3.408,31.237,18.417,13.1,49.186,4.487s58.845-4.452,62.692,9.3S88.07,24.841,57.3,33.456,4.287,58.735.44,44.986Z" transform="translate(168.851 222.705)" fill="#fff" stroke="#1d1d1b" stroke-miterlimit="10" stroke-width="3"/>
        <path id="Path_4" data-name="Path 4" d="M.44,44.986C-3.408,31.237,18.418,13.1,49.186,4.487s58.845-4.452,62.692,9.3S88.07,24.841,57.3,33.456,4.287,58.735.44,44.986Z" transform="translate(0 248.916)" fill="#fff" stroke="#1d1d1b" stroke-miterlimit="10" stroke-width="3"/>
        <path id="Path_5" data-name="Path 5" d="M93.015,2.914c8.772,11.267-4.557,36.31-29.77,55.942S10.481,85.265,1.709,74s17.846-19.251,43.06-38.884S84.256-8.366,93.029,2.9Z" transform="translate(98.626 59.09)" fill="#fff" stroke="#1d1d1b" stroke-miterlimit="10" stroke-width="3"/>
        <path id="Path_6" data-name="Path 6" d="M115.719,7.668c0,14.274-25.909,25.857-57.86,25.857S0,21.955,0,7.668,25.909,3.439,57.86,3.439,115.719-6.607,115.719,7.668Z" transform="translate(114.662 269.898)" fill="#fff" stroke="#1d1d1b" stroke-miterlimit="10" stroke-width="3"/>
        <path id="Path_7" data-name="Path 7" d="M90.715,78.318c-9.337,10.808-36.507,2.626-60.683-18.28s-36.2-46.592-26.868-57.4S25.528,16.375,49.7,37.281,100.052,67.511,90.715,78.318Z" transform="translate(33.113 232.484)" fill="#fff" stroke="#1d1d1b" stroke-miterlimit="10" stroke-width="3"/>
        <path id="Path_8" data-name="Path 8" d="M88.931,2.584c9.416,10.729-2.416,36.52-26.422,57.61S11.387,89.676,1.971,78.947s16.678-20.263,40.7-41.353S79.515-8.131,88.944,2.6Z" transform="translate(100.386 195.48)" fill="#fff" stroke="#1d1d1b" stroke-miterlimit="10" stroke-width="3"/>
        <path id="Path_9" data-name="Path 9" d="M113.716,28.469c-2.8,14-30.466,20.276-61.812,14.025S-2.568,19.815.229,5.8s26.238.932,57.571,7.183,58.713,1.471,55.916,15.483Z" transform="translate(19.764 308.729)" fill="#fff" stroke="#1d1d1b" stroke-miterlimit="10" stroke-width="3"/>
        <path id="Path_10" data-name="Path 10" d="M97.368,69.082c-8.129,11.74-36.021,6.5-62.285-11.687S-5.889,14.926,2.239,3.2s23.7,11.28,49.98,29.468,53.29,24.675,45.161,36.415Z" transform="translate(41.523 0)" fill="#fff" stroke="#1d1d1b" stroke-miterlimit="10" stroke-width="3"/>
      </g>
    </g>
    <g id="b-2" data-name="b" transform="translate(637.739 1517.518) rotate(97)">
      <g id="c-2" data-name="c" transform="translate(0 0)">
        <path id="Path_1-2" data-name="Path 1" d="M115.719,7.668c0,14.274-25.909,25.857-57.86,25.857S0,21.955,0,7.668,25.909,3.439,57.86,3.439,115.719-6.607,115.719,7.668Z" transform="translate(90.946 291.973)" fill="#fff" stroke="#1d1d1b" stroke-miterlimit="10" stroke-width="3"/>
        <path id="Path_2-2" data-name="Path 2" d="M90.715,78.318c-9.337,10.808-36.507,2.626-60.683-18.28s-36.2-46.592-26.868-57.4S25.528,16.375,49.7,37.281,100.052,67.511,90.715,78.318Z" transform="translate(44.617 133.141)" fill="#fff" stroke="#1d1d1b" stroke-miterlimit="10" stroke-width="3"/>
        <path id="Path_3-2" data-name="Path 3" d="M.44,44.986C-3.408,31.237,18.417,13.1,49.186,4.487s58.845-4.452,62.692,9.3S88.07,24.841,57.3,33.456,4.287,58.735.44,44.986Z" transform="translate(168.851 222.705)" fill="#fff" stroke="#1d1d1b" stroke-miterlimit="10" stroke-width="3"/>
        <path id="Path_4-2" data-name="Path 4" d="M.44,44.986C-3.408,31.237,18.418,13.1,49.186,4.487s58.845-4.452,62.692,9.3S88.07,24.841,57.3,33.456,4.287,58.735.44,44.986Z" transform="translate(0 248.916)" fill="#fff" stroke="#1d1d1b" stroke-miterlimit="10" stroke-width="3"/>
        <path id="Path_5-2" data-name="Path 5" d="M93.015,2.914c8.772,11.267-4.557,36.31-29.77,55.942S10.481,85.265,1.709,74s17.846-19.252,43.06-38.884S84.256-8.366,93.029,2.9Z" transform="translate(98.626 59.09)" fill="#fff" stroke="#1d1d1b" stroke-miterlimit="10" stroke-width="3"/>
        <path id="Path_6-2" data-name="Path 6" d="M115.719,7.668c0,14.274-25.909,25.857-57.86,25.857S0,21.955,0,7.668,25.909,3.439,57.86,3.439,115.719-6.607,115.719,7.668Z" transform="translate(114.662 269.898)" fill="#fff" stroke="#1d1d1b" stroke-miterlimit="10" stroke-width="3"/>
        <path id="Path_7-2" data-name="Path 7" d="M90.715,78.318c-9.337,10.808-36.507,2.626-60.683-18.28s-36.2-46.592-26.868-57.4S25.528,16.375,49.7,37.281,100.052,67.511,90.715,78.318Z" transform="translate(33.113 232.485)" fill="#fff" stroke="#1d1d1b" stroke-miterlimit="10" stroke-width="3"/>
        <path id="Path_8-2" data-name="Path 8" d="M88.931,2.584c9.416,10.729-2.416,36.52-26.422,57.61S11.386,89.676,1.971,78.947s16.678-20.263,40.7-41.353S79.515-8.131,88.944,2.6Z" transform="translate(100.386 195.48)" fill="#fff" stroke="#1d1d1b" stroke-miterlimit="10" stroke-width="3"/>
        <path id="Path_9-2" data-name="Path 9" d="M113.716,28.469c-2.8,14-30.466,20.276-61.812,14.025S-2.568,19.815.229,5.8s26.238.932,57.571,7.183,58.713,1.471,55.916,15.483Z" transform="translate(19.764 308.729)" fill="#fff" stroke="#1d1d1b" stroke-miterlimit="10" stroke-width="3"/>
        <path id="Path_10-2" data-name="Path 10" d="M97.368,69.082c-8.129,11.74-36.021,6.5-62.285-11.687S-5.889,14.926,2.239,3.2s23.7,11.28,49.98,29.468,53.29,24.675,45.161,36.415Z" transform="translate(41.523 0)" fill="#fff" stroke="#1d1d1b" stroke-miterlimit="10" stroke-width="3"/>
      </g>
    </g>
    <g id="b-3" data-name="b" transform="matrix(-0.799, -0.602, 0.602, -0.799, 391.452, 1871.845)">
      <g id="c-3" data-name="c" transform="translate(0 0)">
        <path id="Path_1-3" data-name="Path 1" d="M115.719,7.668c0,14.274-25.909,25.857-57.86,25.857S0,21.955,0,7.668,25.909,3.439,57.86,3.439,115.719-6.607,115.719,7.668Z" transform="translate(90.946 291.973)" fill="#fff" stroke="#1d1d1b" stroke-miterlimit="10" stroke-width="3"/>
        <path id="Path_2-3" data-name="Path 2" d="M90.715,78.318c-9.337,10.808-36.507,2.626-60.683-18.28s-36.2-46.592-26.868-57.4S25.528,16.375,49.7,37.281,100.052,67.511,90.715,78.318Z" transform="translate(44.617 133.141)" fill="#fff" stroke="#1d1d1b" stroke-miterlimit="10" stroke-width="3"/>
        <path id="Path_3-3" data-name="Path 3" d="M.44,44.986C-3.408,31.237,18.418,13.1,49.186,4.487s58.845-4.452,62.692,9.3S88.07,24.841,57.3,33.456,4.287,58.735.44,44.986Z" transform="translate(168.851 222.705)" fill="#fff" stroke="#1d1d1b" stroke-miterlimit="10" stroke-width="3"/>
        <path id="Path_4-3" data-name="Path 4" d="M.44,44.986C-3.408,31.237,18.418,13.1,49.186,4.487s58.845-4.452,62.692,9.3S88.07,24.841,57.3,33.456,4.287,58.735.44,44.986Z" transform="translate(0 248.916)" fill="#fff" stroke="#1d1d1b" stroke-miterlimit="10" stroke-width="3"/>
        <path id="Path_5-3" data-name="Path 5" d="M93.015,2.914c8.772,11.267-4.557,36.31-29.77,55.942S10.481,85.265,1.709,74s17.846-19.252,43.06-38.884S84.256-8.366,93.029,2.9Z" transform="translate(98.626 59.09)" fill="#fff" stroke="#1d1d1b" stroke-miterlimit="10" stroke-width="3"/>
        <path id="Path_6-3" data-name="Path 6" d="M115.719,7.668c0,14.274-25.909,25.857-57.86,25.857S0,21.955,0,7.668,25.909,3.439,57.86,3.439,115.719-6.607,115.719,7.668Z" transform="translate(114.662 269.898)" fill="#fff" stroke="#1d1d1b" stroke-miterlimit="10" stroke-width="3"/>
        <path id="Path_7-3" data-name="Path 7" d="M90.715,78.318c-9.337,10.808-36.507,2.626-60.683-18.28s-36.2-46.592-26.868-57.4S25.528,16.375,49.7,37.281,100.052,67.511,90.715,78.318Z" transform="translate(33.113 232.484)" fill="#fff" stroke="#1d1d1b" stroke-miterlimit="10" stroke-width="3"/>
        <path id="Path_8-3" data-name="Path 8" d="M88.931,2.584c9.416,10.729-2.416,36.52-26.422,57.61S11.386,89.676,1.971,78.947s16.678-20.263,40.7-41.353S79.515-8.131,88.944,2.6Z" transform="translate(100.386 195.48)" fill="#fff" stroke="#1d1d1b" stroke-miterlimit="10" stroke-width="3"/>
        <path id="Path_9-3" data-name="Path 9" d="M113.716,28.469c-2.8,14-30.466,20.276-61.812,14.025S-2.568,19.815.229,5.8s26.238.932,57.571,7.183,58.713,1.471,55.916,15.483Z" transform="translate(19.764 308.729)" fill="#fff" stroke="#1d1d1b" stroke-miterlimit="10" stroke-width="3"/>
        <path id="Path_10-3" data-name="Path 10" d="M97.368,69.082c-8.129,11.74-36.021,6.5-62.285-11.687S-5.889,14.926,2.239,3.2s23.7,11.28,49.98,29.468,53.29,24.675,45.161,36.415Z" transform="translate(41.523 0)" fill="#fff" stroke="#1d1d1b" stroke-miterlimit="10" stroke-width="3"/>
      </g>
    </g>
    <g id="b-4" data-name="b" transform="matrix(-0.799, -0.602, 0.602, -0.799, 428.975, 1787.396)">
      <g id="c-4" data-name="c" transform="translate(0 0)">
        <path id="Path_1-4" data-name="Path 1" d="M115.719,7.668c0,14.274-25.909,25.857-57.86,25.857S0,21.955,0,7.668,25.909,3.439,57.86,3.439,115.719-6.607,115.719,7.668Z" transform="translate(90.946 291.973)" fill="#fff" stroke="#1d1d1b" stroke-miterlimit="10" stroke-width="3"/>
        <path id="Path_2-4" data-name="Path 2" d="M90.715,78.318c-9.337,10.808-36.507,2.626-60.683-18.28s-36.2-46.592-26.868-57.4S25.528,16.375,49.7,37.281,100.052,67.511,90.715,78.318Z" transform="translate(44.617 133.141)" fill="#fff" stroke="#1d1d1b" stroke-miterlimit="10" stroke-width="3"/>
        <path id="Path_3-4" data-name="Path 3" d="M.44,44.986C-3.408,31.237,18.418,13.1,49.186,4.487s58.845-4.452,62.692,9.3S88.07,24.841,57.3,33.456,4.287,58.735.44,44.986Z" transform="translate(168.851 222.705)" fill="#fff" stroke="#1d1d1b" stroke-miterlimit="10" stroke-width="3"/>
        <path id="Path_4-4" data-name="Path 4" d="M.44,44.986C-3.408,31.237,18.418,13.1,49.186,4.487s58.845-4.452,62.692,9.3S88.07,24.841,57.3,33.456,4.287,58.735.44,44.986Z" transform="translate(0 248.916)" fill="#fff" stroke="#1d1d1b" stroke-miterlimit="10" stroke-width="3"/>
        <path id="Path_5-4" data-name="Path 5" d="M93.015,2.914c8.772,11.267-4.557,36.31-29.77,55.942S10.481,85.265,1.709,74s17.846-19.252,43.06-38.884S84.256-8.366,93.029,2.9Z" transform="translate(98.626 59.09)" fill="#fff" stroke="#1d1d1b" stroke-miterlimit="10" stroke-width="3"/>
        <path id="Path_6-4" data-name="Path 6" d="M115.719,7.668c0,14.274-25.909,25.857-57.86,25.857S0,21.955,0,7.668,25.909,3.439,57.86,3.439,115.719-6.607,115.719,7.668Z" transform="translate(114.662 269.898)" fill="#fff" stroke="#1d1d1b" stroke-miterlimit="10" stroke-width="3"/>
        <path id="Path_7-4" data-name="Path 7" d="M90.715,78.318c-9.337,10.808-36.507,2.626-60.683-18.28s-36.2-46.592-26.868-57.4S25.528,16.375,49.7,37.281,100.052,67.511,90.715,78.318Z" transform="translate(33.113 232.484)" fill="#fff" stroke="#1d1d1b" stroke-miterlimit="10" stroke-width="3"/>
        <path id="Path_8-4" data-name="Path 8" d="M88.931,2.584c9.416,10.729-2.416,36.52-26.422,57.61S11.386,89.676,1.971,78.947s16.678-20.263,40.7-41.353S79.515-8.131,88.944,2.6Z" transform="translate(100.386 195.48)" fill="#fff" stroke="#1d1d1b" stroke-miterlimit="10" stroke-width="3"/>
        <path id="Path_9-4" data-name="Path 9" d="M113.716,28.469c-2.8,14-30.466,20.276-61.812,14.025S-2.568,19.815.229,5.8s26.238.932,57.571,7.183,58.713,1.471,55.916,15.483Z" transform="translate(19.764 308.729)" fill="#fff" stroke="#1d1d1b" stroke-miterlimit="10" stroke-width="3"/>
        <path id="Path_10-4" data-name="Path 10" d="M97.368,69.082c-8.129,11.74-36.021,6.5-62.285-11.687S-5.889,14.926,2.239,3.2s23.7,11.28,49.98,29.468,53.29,24.675,45.161,36.415Z" transform="translate(41.523 0)" fill="#fff" stroke="#1d1d1b" stroke-miterlimit="10" stroke-width="3"/>
      </g>
    </g>
  </g>
</svg>
