<svg xmlns="http://www.w3.org/2000/svg" xmlns:xlink="http://www.w3.org/1999/xlink" width="259.15" height="234.812" viewBox="0 0 259.15 234.812">
  <defs>
    <radialGradient id="radial-gradient" cx="0.5" cy="0.5" r="0.535" gradientTransform="translate(0.06) scale(0.881 1)" gradientUnits="objectBoundingBox">
      <stop offset="0" stop-color="#e73d26"/>
      <stop offset="0.49" stop-color="#e43b25"/>
      <stop offset="0.71" stop-color="#dd3822"/>
      <stop offset="0.86" stop-color="#d1321e"/>
      <stop offset="1" stop-color="#bf2918"/>
    </radialGradient>
    <linearGradient id="linear-gradient" x1="-0.106" y1="0.198" x2="1.516" y2="1.052" gradientUnits="objectBoundingBox">
      <stop offset="0" stop-color="#95c11f"/>
      <stop offset="0.31" stop-color="#63aa26"/>
      <stop offset="0.78" stop-color="#1f8c31"/>
      <stop offset="1" stop-color="#058036"/>
    </linearGradient>
  </defs>
  <g id="Group_154" data-name="Group 154" transform="translate(-4771.847 -6644.323)">
    <g id="Laag_1-2" transform="translate(4767.096 6656.91) rotate(-9)">
      <g id="Group_17" data-name="Group 17" transform="translate(0 0)">
        <path id="Path_63" data-name="Path 63" d="M138.111,56.344c0,36.065-30.919,65.285-69.062,65.285S0,92.409,0,56.344C0,31.877,14.653,4.025,33.523.347c8.909-1.735,10.742,3.446,28.414,6.612,27.718,4.974,36.81-5.316,51.145.953,16.816,7.357,25.029,30.7,25.029,48.432Z" transform="translate(0 33.92)" stroke="#1d1d1b" stroke-miterlimit="10" stroke-width="1" fill="url(#radial-gradient)"/>
        <path id="Path_64" data-name="Path 64" d="M33.052,51.294c-7.638-1.943-18.2,8.029-23.171,16.45C5.3,75.5,5.3,82.238,3.611,82.152c-2.126-.11-5.145-10.938-2.7-20.4,3.006-11.61,15.9-21.509,28.206-25.1,4.448-1.3,8.653-1.687,8.909-3.581.318-2.42-5.988-6.294-12.49-6.929-9.484-.917-15.276,5.475-17.525,3.324-1.98-1.894-.293-9.594,4.693-12.8,9.178-5.9,24.2,6.954,28.1,2.664,3.605-3.984-7.259-17.244-4.925-19.1,1.894-1.515,12.441,4.473,14.775,13.6,1.222,4.754-.4,7.932,1.662,9.557,2.75,2.163,7.822-1.674,13.688-3.617,15.8-5.218,33.584,4.534,33.229,6.771-.208,1.357-7.125-.1-19.762,3.019-3.556.88-16.853,4.155-16.841,8.42,0,1.381,1.393,1.98,6.1,5.377,4.754,3.434,8.9,6.416,12.417,10.192A32.74,32.74,0,0,1,88.67,65.862c.244.77,2.75,8.75.709,9.887-2.224,1.234-7.088-7.272-18.625-15.5C63.373,55,53.095,49.73,50.907,52.1c-1.173,1.283.953,3.776,1.98,8.921,1.906,9.52-1.577,19.945-4.314,20.128-4.485.306-4.314-27.009-15.545-29.868Z" transform="translate(13.217 12.597)" fill="#95c11f" stroke="#1d1d1b" stroke-miterlimit="10" stroke-width="1"/>
        <path id="Path_65" data-name="Path 65" d="M10.605,51.193C1.953,47.209.89,35.342.217,27.741.071,26.164-1.652,4.484,7.672.647c3.862-1.589,9.239.024,9.618,1.882.318,1.515-2.848,2.542-5.341,5.377-4.754,5.4-4.192,14.1-2.958,18.7,3.642,13.517,19.884,16.376,18.625,21.5-.9,3.691-10.327,6.159-17.024,3.08Z" transform="translate(48.985 0)" stroke="#1d1d1b" stroke-miterlimit="10" stroke-width="1" fill="url(#linear-gradient)"/>
      </g>
    </g>
    <g id="Laag_1-2-2" data-name="Laag_1-2" transform="translate(4773.957 6722.925)">
      <g id="Group_17-2" data-name="Group 17" transform="translate(0 0)">
        <path id="Path_63-2" data-name="Path 63" d="M138.611,84.59c0,36.065-30.919,65.285-69.062,65.285S.5,120.655.5,84.59c0-24.467,14.653-52.319,33.523-56,8.909-1.735,10.742,3.446,28.414,6.612,27.718,4.974,36.81-5.316,51.145.953,16.816,7.357,25.029,30.7,25.029,48.432Z" transform="translate(-0.5 5.674)" stroke="#1d1d1b" stroke-miterlimit="10" stroke-width="1" fill="url(#radial-gradient)"/>
        <path id="Path_64-2" data-name="Path 64" d="M44.367,62.092c-7.638-1.943-18.2,8.029-23.171,16.45-4.583,7.76-4.583,14.494-6.269,14.409-2.126-.11-5.145-10.938-2.7-20.4,3.006-11.61,15.9-21.509,28.206-25.1,4.448-1.3,8.653-1.687,8.909-3.581.318-2.42-5.988-6.294-12.49-6.929-9.484-.917-15.276,5.475-17.525,3.324-1.98-1.894-.293-9.594,4.693-12.8,9.178-5.9,24.2,6.954,28.1,2.664,3.605-3.984-7.259-17.244-4.925-19.1,1.894-1.515,12.441,4.473,14.775,13.6,1.222,4.754-.4,7.932,1.662,9.557,2.75,2.163,7.822-1.674,13.688-3.617,15.8-5.218,33.584,4.534,33.229,6.771-.208,1.357-7.125-.1-19.762,3.019-3.556.88-16.853,4.155-16.841,8.42,0,1.381,1.393,1.98,6.1,5.377,4.754,3.434,8.9,6.416,12.417,10.192A32.74,32.74,0,0,1,99.985,76.66c.244.77,2.75,8.75.709,9.887-2.224,1.234-7.088-7.272-18.625-15.5C74.688,65.8,64.41,60.528,62.222,62.9c-1.173,1.283.953,3.776,1.98,8.921,1.906,9.52-1.577,19.945-4.314,20.128C55.4,92.254,55.574,64.94,44.343,62.08Z" transform="translate(1.902 1.799)" fill="#95c11f" stroke="#1d1d1b" stroke-miterlimit="10" stroke-width="1"/>
        <path id="Path_65-2" data-name="Path 65" d="M51.187,51.684C42.535,47.7,41.472,35.833,40.8,28.232c-.147-1.577-1.87-23.257,7.455-27.094,3.862-1.589,9.239.024,9.618,1.882.318,1.515-2.848,2.542-5.341,5.377-4.754,5.4-4.192,14.1-2.958,18.7,3.642,13.517,19.884,16.376,18.625,21.5-.9,3.691-10.327,6.159-17.024,3.08Z" transform="translate(8.403 -0.491)" stroke="#1d1d1b" stroke-miterlimit="10" stroke-width="1" fill="url(#linear-gradient)"/>
      </g>
    </g>
    <g id="Laag_1-2-3" data-name="Laag_1-2" transform="matrix(0.819, 0.574, -0.574, 0.819, 4936.687, 6671.803)">
      <g id="Group_17-3" data-name="Group 17" transform="translate(0 0)">
        <path id="Path_63-3" data-name="Path 63" d="M138.111,56.344c0,36.065-30.919,65.285-69.062,65.285S0,92.409,0,56.344C0,31.877,14.653,4.025,33.523.347c8.909-1.735,10.742,3.446,28.414,6.612,27.718,4.974,36.81-5.316,51.145.953,16.816,7.357,25.029,30.7,25.029,48.432Z" transform="translate(0 33.92)" stroke="#1d1d1b" stroke-miterlimit="10" stroke-width="1" fill="url(#radial-gradient)"/>
        <path id="Path_64-3" data-name="Path 64" d="M33.052,51.294c-7.638-1.943-18.2,8.029-23.171,16.45C5.3,75.5,5.3,82.238,3.611,82.152c-2.126-.11-5.145-10.938-2.7-20.4,3.006-11.61,15.9-21.509,28.206-25.1,4.448-1.3,8.653-1.687,8.909-3.581.318-2.42-5.988-6.294-12.49-6.929-9.484-.917-15.276,5.475-17.525,3.324-1.98-1.894-.293-9.594,4.693-12.8,9.178-5.9,24.2,6.954,28.1,2.664,3.605-3.984-7.259-17.244-4.925-19.1,1.894-1.515,12.441,4.473,14.775,13.6,1.222,4.754-.4,7.932,1.662,9.557,2.75,2.163,7.822-1.674,13.688-3.617,15.8-5.218,33.584,4.534,33.229,6.771-.208,1.357-7.125-.1-19.762,3.019-3.556.88-16.853,4.155-16.841,8.42,0,1.381,1.393,1.98,6.1,5.377,4.754,3.434,8.9,6.416,12.417,10.192A32.74,32.74,0,0,1,88.67,65.862c.244.77,2.75,8.75.709,9.887-2.224,1.234-7.088-7.272-18.625-15.5C63.373,55,53.095,49.73,50.907,52.1c-1.173,1.283.953,3.776,1.98,8.921,1.906,9.52-1.577,19.945-4.314,20.128-4.485.306-4.314-27.009-15.545-29.868Z" transform="translate(13.217 12.597)" fill="#95c11f" stroke="#1d1d1b" stroke-miterlimit="10" stroke-width="1"/>
        <path id="Path_65-3" data-name="Path 65" d="M10.605,51.193C1.953,47.209.89,35.342.217,27.741.071,26.164-1.652,4.484,7.672.647c3.862-1.589,9.239.024,9.618,1.882.318,1.515-2.848,2.542-5.341,5.377-4.754,5.4-4.192,14.1-2.958,18.7,3.642,13.517,19.884,16.376,18.625,21.5-.9,3.691-10.327,6.159-17.024,3.08Z" transform="translate(48.985 0)" stroke="#1d1d1b" stroke-miterlimit="10" stroke-width="1" fill="url(#linear-gradient)"/>
      </g>
    </g>
  </g>
</svg>
